<svg xmlns="http://www.w3.org/2000/svg" xmlns:xlink="http://www.w3.org/1999/xlink" version="1.1" preserveAspectRatio="xMidYMid meet" viewBox="0 0 600 600"><defs><path d="M280.77 71.7L284.32 71.94 287.73 72.26 290.95 72.66 293.96 73.14 296.7 73.7 302.42 75.17 308.05 76.9 313.57 78.89 318.99 81.13 324.29 83.6 329.45 86.31 334.47 89.25 339.34 92.41 344.05 95.78 348.58 99.37 352.93 103.15 357.09 107.14 361.04 111.31 364.78 115.67 368.3 120.2 372.67 126.53 376.61 133.11 380.11 139.91 383.17 146.9 385.8 154.06 387.97 161.35 389.69 168.74 390.95 176.22 391.74 183.75 392.07 191.31 391.92 198.87 391.3 206.39 390.19 213.85 388.59 221.23 386.5 228.5 384.22 234.93 381.65 241.15 378.8 247.16 375.67 252.94 372.26 258.5 368.58 263.83 364.63 268.93 360.41 273.79 355.92 278.42 351.17 282.8 346.17 286.95 340.9 290.84 335.39 294.48 329.62 297.87 323.6 301 320.27 302.59 317.07 304.03 313.97 305.34 310.94 306.51 307.96 307.56 305 308.49 302.03 309.31 299.03 310.02 295.98 310.63 292.84 311.14 289.6 311.57 286.22 311.91 282.67 312.17 278.94 312.37 275 312.5 273.29 312.53 271.56 312.56 269.84 312.57 268.13 312.58 266.44 312.57 264.79 312.55 263.2 312.53 261.67 312.49 260.22 312.45 258.86 312.4 257.61 312.33 256.47 312.26 255.46 312.18 254.6 312.1 253.9 312 250.31 311.36 246.64 310.57 242.9 309.64 239.13 308.58 235.34 307.39 231.55 306.09 227.8 304.69 224.09 303.19 220.46 301.6 216.93 299.94 213.52 298.21 210.24 296.42 207.13 294.59 204.21 292.71 201.5 290.8 194.3 285.08 187.61 278.97 181.46 272.49 175.84 265.68 170.77 258.54 166.26 251.11 162.32 243.4 158.95 235.44 156.18 227.25 154 218.86 152.42 210.28 151.47 201.55 151.14 192.67 151.45 183.68 152.4 174.6 153.15 169.92 154.05 165.34 155.11 160.87 156.32 156.49 157.69 152.2 159.22 147.98 160.92 143.84 162.8 139.75 164.85 135.72 167.08 131.73 169.5 127.78 172.11 123.86 174.91 119.97 177.9 116.08 181.1 112.2 184.35 108.58 187.8 105.08 191.44 101.71 195.27 98.47 199.28 95.37 203.44 92.43 207.76 89.64 212.22 87.01 216.81 84.54 221.52 82.26 226.34 80.16 231.26 78.24 236.27 76.52 241.35 75.01 246.5 73.7 249.23 73.14 252.21 72.66 255.43 72.26 258.82 71.94 262.36 71.7 266 71.54 269.7 71.46 273.42 71.46 277.13 71.54 280.77 71.7ZM157.6 158.01L157.39 158.94 157.21 159.75 156.92 161.01 156.75 161.79 156.7 162 155.79 166.01 155.02 169.7 154.4 173.14 153.9 176.42 153.54 179.61 153.29 182.79 153.15 186.04 153.11 189.44 153.16 193.07 153.3 197 153.67 203.24 154.25 209.15 155.06 214.78 156.1 220.19 157.4 225.41 158.96 230.51 160.8 235.53 162.92 240.51 165.35 245.52 168.1 250.6 170.11 254.02 172.02 257.14 173.9 260.02 175.8 262.72 177.76 265.31 179.85 267.86 182.11 270.42 184.61 273.08 187.39 275.88 190.5 278.9 197.39 285.04 204.5 290.51 211.84 295.32 219.44 299.46 227.3 302.95 235.44 305.79 243.86 307.99 252.59 309.56 261.63 310.49 271 310.8 273.09 310.79 275.18 310.77 277.24 310.72 279.24 310.67 281.15 310.6 282.92 310.52 284.53 310.43 285.93 310.33 287.1 310.22 288 310.1 289 309.9 289.69 309.74 290.08 309.59 290.12 309.47 289.83 309.38 289.16 309.29 288.11 309.23 286.66 309.18 284.8 309.13 282.5 309.1 275.1 308.75 268.11 307.94 261.5 306.65 255.22 304.86 249.25 302.56 243.54 299.74 238.06 296.38 232.77 292.46 227.63 287.97 222.6 282.9 218.32 277.87 214.7 272.68 211.72 267.19 209.35 261.29 207.56 254.88 206.33 247.81 205.62 239.99 205.42 231.3 205.68 221.6 206.4 210.8 206.89 204.53 207.23 199.04 207.42 194.29 207.44 190.2 207.29 186.73 206.97 183.79 206.47 181.35 205.8 179.32 204.94 177.66 203.9 176.3 202.92 175.41 201.85 174.74 200.71 174.27 199.54 174 198.35 173.94 197.18 174.08 196.04 174.41 194.96 174.95 193.97 175.68 193.1 176.6 192.31 177.71 191.61 178.92 191 180.25 190.47 181.75 190 183.45 189.59 185.39 189.24 187.61 188.93 190.14 188.65 193.03 188.4 196.3 188.27 197.89 188.14 199.42 188 200.85 187.85 202.17 187.7 203.35 187.55 204.38 187.4 205.23 187.26 205.88 187.13 206.31 187 206.5 186.4 206.53 185.44 206.19 184.19 205.52 182.72 204.59 181.11 203.45 179.43 202.15 177.76 200.75 176.16 199.31 174.72 197.87 173.5 196.5 171.36 193.75 169.44 190.94 167.71 188.01 166.15 184.9 164.75 181.56 163.48 177.94 162.32 173.97 161.25 169.62 160.25 164.81 159.3 159.5 159.24 159.14 159.11 158.46 159.03 158 158.93 157.46 158.82 156.84 158.55 155.36 158.4 154.5 157.84 156.96 157.6 158.01ZM205.1 94.21L204.52 94.47 203.84 94.82 203.09 95.27 202.26 95.8 201.37 96.4 200.42 97.08 199.42 97.84 198.37 98.65 197.28 99.53 196.16 100.46 195.01 101.44 193.84 102.47 192.65 103.54 191.46 104.64 190.26 105.77 189.08 106.92 187.9 108.1 186.44 109.59 185.04 111.06 183.69 112.52 182.39 113.97 181.13 115.42 179.91 116.88 178.72 118.34 177.57 119.82 176.44 121.32 175.34 122.84 174.26 124.4 173.19 125.99 172.14 127.62 171.1 129.3 170.07 131.03 169.03 132.82 167.99 134.68 166.95 136.6 165.9 138.6 160.7 148.5 161.3 157.5 161.52 160.22 161.81 162.87 162.16 165.44 162.59 167.93 163.08 170.36 163.64 172.71 164.26 175 164.96 177.22 165.74 179.37 166.58 181.46 167.5 183.5 168.49 185.47 169.56 187.38 170.71 189.25 171.93 191.05 173.23 192.81 174.6 194.52 176.06 196.18 177.6 197.8 178.13 198.33 178.66 198.85 179.19 199.36 179.7 199.85 180.2 200.32 180.69 200.77 181.16 201.2 181.61 201.61 182.04 201.99 182.45 202.35 182.84 202.68 183.2 202.97 183.53 203.23 183.83 203.46 184.1 203.65 184.33 203.8 184.53 203.91 184.68 203.98 184.8 204 184.88 203.96 184.97 203.84 185.06 203.65 185.16 203.38 185.27 203.05 185.37 202.65 185.48 202.19 185.59 201.67 185.71 201.09 185.82 200.47 185.93 199.79 186.05 199.07 186.16 198.3 186.28 197.5 186.39 196.66 186.5 195.79 186.6 194.88 186.7 193.95 186.8 193 187.07 190.65 187.36 188.46 187.68 186.42 188.03 184.54 188.42 182.8 188.84 181.21 189.3 179.76 189.8 178.45 190.34 177.27 190.92 176.22 191.55 175.29 192.23 174.49 192.96 173.81 193.74 173.24 194.58 172.78 195.47 172.44 196.42 172.19 197.43 172.05 198.5 172 199.15 172.02 199.77 172.06 200.35 172.14 200.92 172.25 201.45 172.4 201.97 172.58 202.46 172.8 202.93 173.05 203.38 173.35 203.82 173.69 204.23 174.06 204.64 174.48 205.03 174.94 205.41 175.45 205.78 176.01 206.14 176.61 206.5 177.25 206.85 177.95 207.2 178.7 207.55 179.58 207.86 180.54 208.13 181.6 208.38 182.77 208.58 184.04 208.76 185.43 208.9 186.95 209 188.6 209.08 190.39 209.12 192.33 209.12 194.42 209.1 196.68 209.04 199.11 208.94 201.71 208.82 204.51 208.66 207.5 208.47 210.69 208.25 214.08 208 217.7 207.75 221.49 207.58 225.15 207.48 228.68 207.45 232.1 207.51 235.4 207.63 238.59 207.84 241.67 208.12 244.64 208.48 247.51 208.92 250.29 209.43 252.97 210.03 255.56 210.71 258.07 211.47 260.49 212.31 262.83 213.23 265.1 214.24 267.3 215.33 269.43 216.5 271.5 218.21 274.17 220.11 276.79 222.18 279.36 224.41 281.87 226.78 284.31 229.29 286.67 231.92 288.94 234.66 291.12 237.48 293.19 240.39 295.13 243.36 296.96 246.38 298.65 249.43 300.19 252.52 301.58 255.61 302.81 258.69 303.86 261.77 304.74 264.8 305.42 267.8 305.9 269.46 306.09 271.34 306.27 273.39 306.42 275.6 306.55 277.93 306.66 280.35 306.74 282.83 306.81 285.34 306.85 287.85 306.87 290.34 306.87 292.76 306.85 295.1 306.81 297.33 306.74 299.4 306.66 301.29 306.55 302.98 306.42 304.43 306.27 305.61 306.09 306.5 305.9 307.53 305.6 308.64 305.25 309.82 304.86 311.06 304.42 312.33 303.95 313.62 303.46 314.92 302.95 316.2 302.43 317.46 301.9 318.68 301.38 319.83 300.86 320.91 300.36 321.9 299.89 322.78 299.44 323.54 299.03 324.15 298.66 324.61 298.35 324.9 298.09 325 297.9 324.95 297.61 324.81 297.36 324.58 297.13 324.25 296.94 323.82 296.77 323.3 296.64 322.68 296.53 321.97 296.45 321.16 296.4 320.24 296.38 319.23 296.39 318.12 296.43 316.91 296.5 315.6 296.59 314.18 296.72 312.67 296.87 311.05 297.05 309.33 297.26 307.5 297.5 305.12 297.83 302.98 298.11 301.06 298.34 299.36 298.52 297.88 298.65 296.61 298.73 295.55 298.76 294.68 298.72 294.01 298.63 293.53 298.48 293.23 298.26 293.11 297.98 293.17 297.63 293.39 297.21 293.77 296.72 294.3 296.15 294.99 295.51 295.83 294.8 296.8 294 298.41 292.7 299.91 291.41 301.28 290.12 302.54 288.84 303.69 287.54 304.73 286.24 305.67 284.91 306.5 283.56 307.23 282.17 307.87 280.74 308.41 279.27 308.86 277.75 309.22 276.17 309.5 274.52 309.69 272.81 309.81 271.01 309.84 269.13 309.81 267.17 309.7 265.1 309.64 264.35 309.57 263.59 309.5 262.82 309.44 262.05 309.37 261.28 309.3 260.52 309.23 259.76 309.16 259.02 309.09 258.29 309.01 257.59 308.94 256.91 308.87 256.25 308.8 255.63 308.73 255.04 308.66 254.5 308.6 254 308.53 253.55 308.46 253.15 308.4 252.8 307.8 249.1 314.1 245.9 315.6 245.14 317.05 244.37 318.48 243.59 319.87 242.8 321.25 241.99 322.61 241.15 323.95 240.29 325.29 239.4 326.63 238.48 327.97 237.51 329.32 236.51 330.69 235.46 332.08 234.36 333.49 233.2 334.93 231.99 336.4 230.72 337.92 229.38 339.49 227.98 341.1 226.5 342.06 225.63 343.01 224.78 343.96 223.95 344.89 223.14 345.82 222.36 346.73 221.61 347.63 220.88 348.53 220.18 349.4 219.5 350.27 218.85 351.12 218.24 351.95 217.65 352.77 217.09 353.57 216.56 354.36 216.06 355.12 215.6 355.87 215.16 356.59 214.76 357.3 214.4 359.24 213.43 361.03 212.49 362.66 211.59 364.14 210.73 365.46 209.91 366.64 209.11 367.67 208.34 368.55 207.61 369.29 206.9 369.88 206.21 370.33 205.54 370.64 204.9 370.81 204.27 370.84 203.67 370.74 203.07 370.5 202.49 370.13 201.92 369.63 201.36 369 200.8 368.68 200.55 368.39 200.32 368.13 200.12 367.88 199.95 367.64 199.81 367.42 199.7 367.19 199.62 366.97 199.56 366.74 199.54 366.51 199.54 366.25 199.58 365.98 199.64 365.69 199.73 365.37 199.85 365.02 200 364.63 200.18 364.2 200.39 363.73 200.63 363.2 200.9 362.26 201.35 361.26 201.8 360.21 202.25 359.11 202.7 357.98 203.15 356.82 203.58 355.65 204.01 354.47 204.42 353.3 204.81 352.15 205.18 351.03 205.53 349.94 205.85 348.9 206.13 347.91 206.38 346.99 206.6 346.15 206.77 345.4 206.89 344.75 206.97 344.2 207 343.67 206.98 343.15 206.92 342.65 206.82 342.17 206.68 341.7 206.5 341.25 206.28 340.82 206.03 340.41 205.74 340.02 205.41 339.66 205.05 339.31 204.66 338.99 204.24 338.7 203.78 338.43 203.29 338.18 202.77 337.97 202.22 337.78 201.64 337.63 201.03 337.5 200.4 337.38 199.7 337.3 199.06 337.26 198.48 337.28 197.94 337.36 197.45 337.49 197.01 337.69 196.61 337.95 196.25 338.29 195.93 338.7 195.63 339.2 195.37 339.78 195.14 340.45 194.92 341.22 194.74 342.08 194.56 343.05 194.41 344.12 194.26 345.3 194.13 346.6 194 348.06 193.87 349.43 193.71 350.74 193.54 351.97 193.34 353.14 193.12 354.25 192.87 355.31 192.6 356.32 192.29 357.29 191.96 358.23 191.59 359.13 191.18 360.01 190.73 360.88 190.25 361.73 189.72 362.58 189.15 363.42 188.54 364.27 187.88 365.13 187.16 366 186.4 367.09 185.39 368.08 184.4 368.98 183.44 369.78 182.5 370.49 181.59 371.1 180.7 371.62 179.82 372.05 178.97 372.38 178.13 372.62 177.3 372.77 176.49 372.83 175.69 372.79 174.9 372.67 174.12 372.45 173.35 372.15 172.58 371.75 171.82 371.27 171.06 370.7 170.3 370.49 170.04 370.26 169.72 370.02 169.37 369.76 168.96 369.5 168.52 369.22 168.04 368.94 167.53 368.65 166.99 368.36 166.42 368.06 165.83 367.77 165.21 367.47 164.59 367.17 163.94 366.88 163.29 366.59 162.63 366.3 161.97 366.03 161.31 365.76 160.65 365.5 160 365.26 159.35 365 158.68 364.74 158.01 364.46 157.33 364.18 156.65 363.9 155.97 363.61 155.3 363.32 154.64 363.03 153.99 362.74 153.36 362.46 152.75 362.18 152.16 361.91 151.6 361.64 151.07 361.39 150.57 361.14 150.12 360.91 149.7 360.7 149.33 360.5 149 359.99 148.22 359.39 147.41 358.73 146.57 358.01 145.71 357.22 144.82 356.38 143.93 355.5 143.02 354.57 142.12 353.62 141.21 352.63 140.32 351.62 139.43 350.6 138.57 349.56 137.73 348.52 136.92 347.49 136.15 346.46 135.41 345.45 134.72 344.46 134.08 343.5 133.5 343.06 133.24 342.62 132.98 342.2 132.72 341.78 132.45 341.37 132.18 340.97 131.91 340.58 131.64 340.21 131.38 339.86 131.12 339.52 130.86 339.21 130.61 338.91 130.37 338.64 130.13 338.4 129.91 338.18 129.7 337.99 129.5 337.83 129.32 337.7 129.15 337.6 129 337.26 128.49 336.88 127.97 336.46 127.46 336 126.94 335.52 126.43 335.01 125.93 334.49 125.44 333.95 124.97 333.4 124.52 332.85 124.09 332.3 123.69 331.75 123.33 331.22 123 330.7 122.71 330.2 122.46 329.72 122.27 329.28 122.12 328.87 122.03 328.5 122 328.12 122.01 327.76 122.06 327.43 122.13 327.12 122.23 326.83 122.37 326.56 122.53 326.32 122.73 326.1 122.96 325.9 123.23 325.73 123.53 325.57 123.86 325.43 124.24 325.31 124.64 325.22 125.09 325.14 125.57 325.08 126.09 325.03 126.66 325.01 127.26 325 127.9 324.99 128.25 324.98 128.58 324.95 128.88 324.9 129.16 324.84 129.42 324.76 129.66 324.67 129.88 324.55 130.09 324.4 130.28 324.24 130.46 324.05 130.64 323.83 130.8 323.58 130.95 323.3 131.1 322.99 131.24 322.65 131.38 322.27 131.52 321.85 131.66 321.4 131.8 320.92 131.93 320.47 132.05 320.06 132.15 319.68 132.23 319.33 132.3 319.02 132.34 318.72 132.37 318.45 132.38 318.2 132.36 317.96 132.33 317.73 132.28 317.52 132.21 317.32 132.11 317.12 132 316.92 131.86 316.72 131.71 316.52 131.53 316.32 131.33 316.1 131.1 315.79 130.77 315.42 130.44 315.01 130.12 314.55 129.8 314.05 129.5 313.51 129.2 312.95 128.91 312.35 128.64 311.74 128.39 311.11 128.14 310.46 127.92 309.81 127.72 309.16 127.54 308.5 127.38 307.85 127.25 307.21 127.14 306.59 127.06 305.98 127.02 305.4 127 305.1 127 304.82 127.02 304.57 127.04 304.34 127.08 304.13 127.13 303.95 127.19 303.78 127.27 303.64 127.37 303.51 127.49 303.4 127.62 303.3 127.77 303.22 127.95 303.16 128.15 303.1 128.37 303.06 128.62 303.03 128.9 303.01 129.2 303 129.54 303 129.9 303.01 130.17 303.02 130.46 303.05 130.77 303.09 131.1 303.13 131.45 303.19 131.82 303.26 132.2 303.33 132.59 303.41 133 303.49 133.41 303.59 133.82 303.69 134.24 303.79 134.66 303.9 135.08 304.01 135.5 304.13 135.91 304.25 136.32 304.37 136.71 304.5 137.1 304.7 137.64 304.87 138.15 305.03 138.64 305.16 139.12 305.28 139.57 305.38 140.01 305.46 140.44 305.52 140.86 305.56 141.28 305.58 141.69 305.59 142.11 305.58 142.53 305.55 142.95 305.5 143.39 305.43 143.83 305.35 144.3 305.25 144.78 305.13 145.28 305 145.8 304.64 147.16 304.26 148.48 303.86 149.76 303.44 150.99 302.98 152.18 302.5 153.34 301.99 154.46 301.46 155.55 300.89 156.62 300.28 157.65 299.64 158.67 298.97 159.66 298.25 160.64 297.5 161.61 296.71 162.56 295.87 163.5 295 164.44 294.07 165.37 293.1 166.3 291.96 167.33 290.86 168.29 289.77 169.2 288.7 170.06 287.63 170.86 286.57 171.63 285.49 172.35 284.39 173.03 283.27 173.68 282.12 174.31 280.93 174.91 279.68 175.49 278.39 176.05 277.03 176.6 275.59 177.14 274.08 177.68 272.49 178.21 270.79 178.75 269 179.3 266.99 179.94 265.12 180.57 263.37 181.21 261.74 181.86 260.21 182.53 258.76 183.24 257.38 184 256.05 184.81 254.78 185.69 253.53 186.65 252.3 187.7 251.07 188.85 249.83 190.11 248.57 191.49 247.26 193.01 245.91 194.66 244.49 196.47 242.99 198.45 241.4 200.6 240.86 201.31 240.37 201.88 239.93 202.32 239.55 202.63 239.22 202.8 238.95 202.85 238.73 202.75 238.56 202.53 238.45 202.17 238.39 201.67 238.38 201.05 238.43 200.29 238.54 199.39 238.69 198.36 238.91 197.2 239.17 195.9 239.49 194.47 239.87 192.9 240.3 191.2 241.75 185.17 242.97 179.31 243.97 173.61 244.73 168.09 245.27 162.73 245.58 157.54 245.67 152.52 245.53 147.68 245.16 143.01 244.56 138.51 243.74 134.19 242.69 130.05 241.41 126.08 239.91 122.3 238.18 118.69 236.22 115.27 234.04 112.03 231.63 108.97 229 106.1 228.27 105.37 227.58 104.69 226.91 104.05 226.25 103.45 225.62 102.9 224.99 102.38 224.36 101.89 223.73 101.43 223.1 100.99 222.45 100.57 221.78 100.17 221.1 99.78 220.38 99.4 219.63 99.02 218.84 98.65 218.01 98.27 217.13 97.89 216.19 97.5 215.2 97.1 214.49 96.83 213.8 96.57 213.11 96.32 212.44 96.08 211.79 95.84 211.15 95.61 210.54 95.4 209.96 95.19 209.4 95 208.88 94.83 208.39 94.66 207.93 94.52 207.52 94.38 207.14 94.27 206.82 94.18 206.53 94.1 206.3 94.05 206.12 94.01 206 94 205.6 94.05 205.1 94.21ZM266.81 73.61L264.75 73.63 262.87 73.66 261.14 73.7 259.55 73.75 258.09 73.81 256.72 73.89 255.45 73.99 254.24 74.11 253.09 74.25 251.98 74.41 250.88 74.6 249.79 74.81 248.69 75.05 247.56 75.31 246.37 75.61 245.13 75.94 243.8 76.3 241.9 76.82 239.98 77.38 238.05 77.96 236.12 78.57 234.2 79.21 232.29 79.86 230.4 80.54 228.54 81.23 226.71 81.93 224.92 82.65 223.18 83.37 221.5 84.1 219.87 84.82 218.32 85.55 216.84 86.28 215.44 87 214.13 87.71 212.91 88.41 211.8 89.1 206.8 92.3 215.2 95.3 216.29 95.7 217.31 96.08 218.26 96.46 219.14 96.82 219.97 97.19 220.75 97.55 221.49 97.93 222.19 98.32 222.88 98.73 223.54 99.16 224.2 99.61 224.86 100.11 225.53 100.64 226.21 101.21 226.91 101.83 227.64 102.51 228.41 103.24 229.23 104.04 230.1 104.9 232.74 107.74 235.17 110.75 237.39 113.94 239.39 117.3 241.18 120.83 242.76 124.52 244.12 128.37 245.26 132.38 246.19 136.54 246.9 140.85 247.4 145.31 247.67 149.9 247.72 154.64 247.56 159.52 247.17 164.52 246.56 169.66 245.73 174.92 244.68 180.3 243.4 185.8 243.18 186.69 242.98 187.57 242.78 188.43 242.59 189.26 242.41 190.06 242.24 190.84 242.09 191.58 241.94 192.29 241.81 192.96 241.69 193.58 241.59 194.16 241.5 194.69 241.42 195.16 241.36 195.58 241.31 195.93 241.29 196.23 241.27 196.46 241.28 196.61 241.3 196.7 241.36 196.71 241.44 196.7 241.54 196.64 241.66 196.56 241.8 196.45 241.96 196.31 242.14 196.14 242.33 195.95 242.53 195.73 242.75 195.49 242.98 195.23 243.22 194.94 243.47 194.64 243.72 194.32 243.99 193.99 244.26 193.63 244.54 193.27 244.82 192.89 245.1 192.5 245.86 191.5 246.69 190.51 247.58 189.54 248.53 188.59 249.54 187.66 250.61 186.75 251.73 185.86 252.91 185 254.14 184.16 255.42 183.35 256.75 182.56 258.12 181.8 259.53 181.08 260.99 180.38 262.48 179.71 264.01 179.08 265.58 178.49 267.17 177.92 268.8 177.4 270.63 176.84 272.33 176.31 273.91 175.78 275.39 175.26 276.77 174.75 278.07 174.22 279.3 173.69 280.46 173.14 281.57 172.57 282.64 171.97 283.68 171.34 284.7 170.66 285.71 169.94 286.73 169.16 287.75 168.33 288.8 167.44 289.89 166.47 291.02 165.43 292.2 164.3 293.48 163.01 294.67 161.75 295.78 160.49 296.8 159.25 297.73 158.02 298.58 156.79 299.35 155.57 300.04 154.35 300.64 153.13 301.17 151.9 301.61 150.66 301.98 149.42 302.27 148.16 302.49 146.89 302.64 145.6 302.71 144.29 302.71 142.95 302.64 141.59 302.5 140.2 302.45 139.7 302.4 139.18 302.35 138.63 302.3 138.08 302.25 137.51 302.2 136.93 302.15 136.34 302.1 135.76 302.05 135.17 302 134.58 301.96 134.01 301.91 133.44 301.87 132.88 301.83 132.34 301.8 131.82 301.77 131.33 301.74 130.86 301.72 130.41 301.7 130 301.67 129.37 301.65 128.8 301.64 128.29 301.64 127.83 301.66 127.42 301.69 127.06 301.74 126.75 301.8 126.48 301.89 126.24 301.99 126.04 302.12 125.87 302.28 125.73 302.46 125.61 302.67 125.51 302.91 125.43 303.18 125.36 303.48 125.3 303.82 125.25 304.2 125.2 304.8 125.15 305.45 125.14 306.12 125.17 306.82 125.22 307.54 125.31 308.28 125.42 309.02 125.56 309.77 125.73 310.52 125.92 311.26 126.13 311.98 126.37 312.68 126.62 313.36 126.89 314.01 127.18 314.63 127.48 315.2 127.79 315.72 128.12 316.19 128.46 316.6 128.8 317.03 129.16 317.48 129.47 317.94 129.71 318.39 129.9 318.85 130.03 319.31 130.11 319.76 130.13 320.19 130.09 320.61 130.01 321.01 129.88 321.38 129.69 321.73 129.46 322.04 129.18 322.32 128.86 322.55 128.49 322.74 128.08 322.88 127.63 322.97 127.13 323 126.6 323.01 126.39 323.03 126.16 323.06 125.93 323.1 125.69 323.16 125.44 323.22 125.18 323.3 124.92 323.38 124.66 323.47 124.39 323.58 124.13 323.69 123.87 323.81 123.61 323.93 123.35 324.06 123.1 324.2 122.86 324.34 122.63 324.49 122.41 324.64 122.2 324.8 122 325.23 121.52 325.69 121.11 326.17 120.78 326.69 120.52 327.23 120.34 327.8 120.23 328.39 120.2 329.01 120.24 329.64 120.35 330.29 120.54 330.96 120.8 331.64 121.13 332.34 121.53 333.04 122 333.76 122.54 334.49 123.15 335.22 123.83 335.96 124.58 336.7 125.4 337.04 125.77 337.41 126.15 337.8 126.54 338.21 126.94 338.64 127.34 339.08 127.74 339.53 128.15 339.99 128.55 340.46 128.95 340.94 129.35 341.41 129.73 341.89 130.11 342.36 130.48 342.83 130.83 343.29 131.16 343.74 131.48 344.17 131.78 344.6 132.05 345 132.3 346.68 133.3 348.29 134.33 349.82 135.38 351.28 136.45 352.68 137.56 354.01 138.7 355.28 139.88 356.49 141.1 357.65 142.37 358.76 143.69 359.82 145.06 360.84 146.49 361.82 147.98 362.76 149.54 363.66 151.16 364.53 152.85 365.38 154.62 366.2 156.47 367 158.4 367.27 159.07 367.56 159.75 367.86 160.44 368.16 161.13 368.47 161.83 368.79 162.52 369.1 163.21 369.42 163.89 369.74 164.55 370.06 165.2 370.37 165.82 370.67 166.43 370.97 167 371.26 167.55 371.54 168.06 371.8 168.54 372.05 168.97 372.29 169.36 372.5 169.7 372.98 170.41 373.4 171.08 373.77 171.73 374.08 172.35 374.34 172.96 374.54 173.55 374.69 174.13 374.78 174.71 374.82 175.28 374.8 175.87 374.72 176.46 374.59 177.07 374.4 177.71 374.16 178.36 373.86 179.05 373.5 179.77 373.09 180.53 372.62 181.34 372.1 182.2 371.23 183.47 370.28 184.7 369.24 185.88 368.12 187.01 366.94 188.08 365.68 189.1 364.36 190.05 362.98 190.95 361.55 191.78 360.07 192.55 358.54 193.25 356.98 193.87 355.39 194.42 353.76 194.89 352.12 195.28 350.45 195.59 348.78 195.82 347.09 195.95 345.4 196 344.48 196.01 343.63 196.05 342.86 196.11 342.17 196.19 341.55 196.31 341 196.45 340.52 196.63 340.11 196.84 339.76 197.09 339.48 197.37 339.26 197.7 339.11 198.06 339.01 198.47 338.97 198.92 338.99 199.41 339.07 199.96 339.19 200.55 339.37 201.2 339.6 201.9 339.85 202.5 340.16 203.03 340.53 203.49 340.97 203.88 341.47 204.21 342.05 204.46 342.69 204.65 343.4 204.77 344.19 204.82 345.05 204.81 346 204.72 347.02 204.57 348.13 204.35 349.32 204.06 350.59 203.71 351.96 203.28 353.41 202.79 354.96 202.23 356.6 201.6 358.08 201 359.44 200.46 360.7 199.97 361.86 199.54 362.93 199.17 363.91 198.86 364.81 198.6 365.63 198.39 366.38 198.24 367.06 198.14 367.67 198.1 368.23 198.1 368.74 198.16 369.2 198.26 369.62 198.41 370.01 198.62 370.36 198.86 370.69 199.16 371 199.5 371.54 200.25 371.94 201.03 372.2 201.83 372.32 202.65 372.3 203.48 372.15 204.34 371.85 205.2 371.43 206.08 370.87 206.97 370.18 207.86 369.36 208.76 368.41 209.67 367.33 210.58 366.13 211.49 364.81 212.4 363.36 213.31 361.79 214.21 360.1 215.11 358.3 216 357.67 216.3 357.02 216.64 356.34 217.02 355.64 217.43 354.93 217.87 354.19 218.34 353.44 218.84 352.67 219.37 351.89 219.93 351.1 220.51 350.31 221.11 349.5 221.73 348.69 222.38 347.87 223.05 347.06 223.73 346.24 224.43 345.42 225.14 344.61 225.86 343.8 226.6 342.12 228.15 340.52 229.6 338.98 230.97 337.51 232.26 336.1 233.47 334.73 234.62 333.39 235.7 332.09 236.73 330.82 237.7 329.56 238.64 328.31 239.53 327.06 240.39 325.8 241.22 324.53 242.04 323.24 242.84 321.92 243.62 320.56 244.41 319.16 245.2 317.7 246 309.9 250.2 310.7 255.9 310.76 256.41 310.83 256.97 310.89 257.57 310.95 258.21 311.01 258.88 311.07 259.59 311.12 260.31 311.18 261.06 311.23 261.83 311.27 262.6 311.32 263.39 311.36 264.18 311.39 264.97 311.42 265.76 311.45 266.54 311.47 267.31 311.49 268.06 311.5 268.79 311.5 269.5 311.47 271.13 311.39 272.71 311.25 274.24 311.05 275.71 310.8 277.14 310.48 278.53 310.11 279.87 309.67 281.16 309.17 282.42 308.61 283.64 307.99 284.83 307.3 285.97 306.55 287.09 305.72 288.18 304.84 289.23 303.88 290.26 302.86 291.26 301.76 292.24 300.6 293.2 295.5 297.3 299.5 296.7 299.88 296.65 300.31 296.59 300.79 296.52 301.33 296.45 301.9 296.37 302.52 296.29 303.17 296.19 303.85 296.1 304.56 296 305.29 295.9 306.05 295.79 306.82 295.68 307.6 295.57 308.39 295.46 309.18 295.35 309.97 295.24 310.76 295.12 311.53 295.01 312.3 294.9 313.48 294.74 314.56 294.59 315.55 294.47 316.45 294.37 317.28 294.28 318.03 294.22 318.73 294.18 319.36 294.16 319.95 294.17 320.49 294.19 321 294.23 321.49 294.3 321.95 294.39 322.4 294.5 322.84 294.64 323.29 294.79 323.74 294.97 324.21 295.17 324.7 295.4 328.2 297.1 335.4 292.6 339.76 289.71 344 286.58 348.12 283.23 352.09 279.65 355.91 275.88 359.58 271.92 363.08 267.78 366.41 263.48 369.55 259.04 372.5 254.46 375.25 249.75 377.8 244.94 380.12 240.03 382.22 235.04 384.08 229.97 385.7 224.86 387.06 219.7 388.17 214.51 389 209.3 389.28 207.07 389.5 204.73 389.68 202.32 389.81 199.82 389.89 197.27 389.93 194.68 389.92 192.05 389.87 189.4 389.78 186.75 389.64 184.1 389.46 181.48 389.24 178.89 388.97 176.36 388.67 173.88 388.33 171.48 387.96 169.17 387.54 166.96 387.09 164.86 386.6 162.9 385.66 159.52 384.65 156.21 383.57 152.96 382.4 149.77 381.16 146.64 379.84 143.56 378.44 140.55 376.96 137.58 375.4 134.66 373.75 131.8 372.02 128.98 370.21 126.21 368.3 123.48 366.31 120.79 364.23 118.14 362.06 115.53 359.8 112.95 357.45 110.41 355 107.9 352.52 105.47 350.02 103.14 347.47 100.9 344.89 98.76 342.27 96.7 339.61 94.74 336.89 92.86 334.12 91.07 331.3 89.35 328.41 87.72 325.46 86.16 322.44 84.68 319.35 83.27 316.19 81.93 312.95 80.66 309.62 79.45 306.2 78.31 302.7 77.22 299.1 76.2 297.77 75.84 296.53 75.51 295.36 75.22 294.23 74.96 293.14 74.73 292.06 74.52 290.98 74.34 289.88 74.19 288.74 74.06 287.55 73.95 286.28 73.86 284.93 73.78 283.47 73.72 281.88 73.68 280.16 73.65 278.27 73.62 276.22 73.61 273.96 73.6 271.5 73.6 269.05 73.6 266.81 73.61Z" id="a2ZqQzT3F7"/><path d="M0 390L0 0 520 0 520 390 0 390ZM266 71.54L262.36 71.7 258.82 71.94 255.43 72.26 252.21 72.66 249.23 73.14 246.5 73.7 240.3 75.3 234.23 77.19 228.3 79.35 222.52 81.78 216.9 84.47 211.45 87.42 206.17 90.62 201.08 94.07 196.19 97.75 191.5 101.66 187.03 105.8 182.78 110.16 178.78 114.74 175.01 119.52 171.5 124.5 170.4 126.22 169.27 128.07 168.12 130.04 166.95 132.11 165.79 134.26 164.64 136.45 163.5 138.68 162.4 140.92 161.35 143.15 160.34 145.34 159.4 147.49 158.54 149.56 157.76 151.53 157.08 153.38 156.5 155.1 156.23 156.02 155.95 157.04 155.66 158.16 155.36 159.35 155.06 160.62 154.75 161.95 154.45 163.32 154.15 164.73 153.86 166.17 153.57 167.61 153.3 169.06 153.05 170.49 152.81 171.9 152.59 173.27 152.4 174.6 151.45 183.68 151.14 192.67 151.47 201.55 152.42 210.28 154 218.86 156.18 227.25 158.95 235.44 162.32 243.4 166.26 251.11 170.77 258.54 175.84 265.68 181.46 272.49 187.61 278.97 194.3 285.08 201.5 290.8 203.33 292.08 205.43 293.43 207.77 294.83 210.3 296.27 212.99 297.72 215.79 299.16 218.68 300.59 221.6 301.97 224.53 303.3 227.41 304.55 230.22 305.7 232.91 306.74 235.45 307.65 237.79 308.41 239.9 309 242.5 309.64 244.9 310.21 247.16 310.71 249.3 311.14 251.36 311.51 253.36 311.82 255.36 312.07 257.38 312.27 259.45 312.42 261.61 312.53 263.9 312.59 266.35 312.62 268.99 312.61 271.86 312.57 275 312.5 277.39 312.44 279.6 312.36 281.66 312.27 283.58 312.17 285.39 312.06 287.09 311.92 288.71 311.76 290.27 311.58 291.79 311.38 293.28 311.14 294.77 310.88 296.26 310.59 297.79 310.26 299.36 309.9 301 309.5 303.69 308.79 306.5 307.93 309.41 306.95 312.4 305.84 315.44 304.63 318.52 303.33 321.59 301.94 324.65 300.47 327.67 298.94 330.62 297.37 333.49 295.75 336.24 294.1 338.86 292.44 341.32 290.77 343.6 289.1 347.57 285.97 351.38 282.7 355.05 279.28 358.56 275.74 361.92 272.06 365.12 268.24 368.16 264.3 371.04 260.24 373.76 256.05 376.31 251.74 378.69 247.32 380.91 242.78 382.95 238.13 384.81 233.37 386.5 228.5 388.59 221.23 390.19 213.85 391.3 206.39 391.92 198.87 392.07 191.31 391.74 183.75 390.95 176.22 389.69 168.74 387.97 161.35 385.8 154.06 383.17 146.9 380.11 139.91 376.61 133.11 372.67 126.53 368.3 120.2 364.78 115.67 361.04 111.31 357.09 107.14 352.93 103.15 348.58 99.37 344.05 95.78 339.34 92.41 334.47 89.25 329.45 86.31 324.29 83.6 318.99 81.13 313.57 78.89 308.05 76.9 302.42 75.17 296.7 73.7 293.96 73.14 290.95 72.66 287.73 72.26 284.32 71.94 280.77 71.7 277.13 71.54 273.42 71.46 269.7 71.46 266 71.54Z" id="hA22WP4dy"/><path d="M190.5 278.9C179.5 268.4 175 262.6 168.1 250.6 158.4 233.5 154.2 218.4 153.3 197 152.7 183.3 153.4 176 156.7 162 156.81 161.5 157.38 159 158.4 154.5 158.94 157.5 159.24 159.17 159.3 159.5 162.4 178.1 166 187.4 173.5 196.5 177.1 200.9 185.7 207.3 187 206.5 187.4 206.3 188 201.7 188.4 196.3 189.2 184.7 190.3 180.2 193.1 176.6 195.8 173.2 200.8 173 203.9 176.3 207.7 180.4 208.3 188.5 206.4 210.8 203.3 248.8 207.2 266.3 222.6 282.9 239.2 300.8 257.1 308.7 282.5 309.1 290.9 309.2 291.8 309.4 288 310.1 280.8 311.3 259.2 310.9 250.5 309.4 226.8 305.1 207.9 295.5 190.5 278.9Z" id="f1HxFE2AV"/><path d="M216.5 271.5C208.8 258.6 206.2 242.1 208 217.7 209.7 194.1 209.5 184 207.2 178.7 205 173.8 202.7 172 198.5 172 191.5 172 188.4 177.6 186.8 193 186.2 199.1 185.3 204 184.8 204 184.2 204 181 201.2 177.6 197.8 167.6 187.7 162.5 175 161.3 157.5 161.26 156.9 161.06 153.9 160.7 148.5 163.82 142.56 165.55 139.26 165.9 138.6 172.6 125.7 178.5 117.6 187.9 108.1 195.3 100.6 203.8 94 206 94 206.6 94 210.7 95.4 215.2 97.1 221.7 99.7 224.3 101.3 229 106.1 246.4 123.7 250.2 152.5 240.3 191.2 237.4 202.4 237.8 205.5 241.4 200.6 251.8 186.4 255.8 183.4 269 179.3 280.7 175.8 285.8 173 293.1 166.3 299.4 160.4 302.8 154.6 305 145.8 305.9 142.4 305.8 140.6 304.5 137.1 303.7 134.7 303 131.5 303 129.9 303 127.5 303.4 127 305.4 127 309 127 314.3 129 316.1 131.1 317.5 132.6 318.2 132.7 321.4 131.8 324.4 130.9 325 130.2 325 127.9 325 123.7 326 122 328.5 122 330.7 122 335.6 125.8 337.6 129 338.1 129.9 340.7 131.9 343.5 133.5 349.5 137 357.5 144.2 360.5 149 361.7 150.9 364 155.9 365.5 160 367.1 164.1 369.4 168.8 370.7 170.3 374.6 175.1 373.2 179.9 366 186.4 360.4 191.4 356.1 193.2 346.6 194 338 194.8 336.6 195.8 337.5 200.4 338.2 204.5 340.8 207 344.2 207 347.3 207 357.5 203.7 363.2 200.9 366.7 199.1 366.9 199.1 369 200.8 373.4 204.3 370.1 208.1 357.3 214.4 352.9 216.6 347.2 220.9 341.1 226.5 330.7 236.1 323.7 241.1 314.1 245.9 313.68 246.11 311.58 247.18 307.8 249.1 308.16 251.32 308.36 252.55 308.4 252.8 308.8 254.8 309.3 260.4 309.7 265.1 310.6 278.5 307.4 285.7 296.8 294 290.2 299.3 291.7 299.7 307.5 297.5 319.4 295.9 325 296 325 297.9 325 298.9 312.7 304.2 306.5 305.9 301.9 307.2 277.6 307.2 267.8 305.9 249 303.5 226.7 288.5 216.5 271.5Z" id="aAcRbilbf"/><path d="M311.5 269.5C311.5 265.1 311.1 259 310.7 255.9 310.65 255.52 310.38 253.62 309.9 250.2 314.58 247.68 317.18 246.28 317.7 246 327.1 240.9 332.9 236.7 343.8 226.6 348.9 221.9 354.4 217.8 358.3 216 370.1 210.4 374.9 204.2 371 199.5 369.1 197.2 366.3 197.6 356.6 201.6 345.9 205.8 341 205.9 339.6 201.9 338 197.3 339.3 196 345.4 196 356.1 196 366.9 190.4 372.1 182.2 375.6 176.6 375.7 174.3 372.5 169.7 371.2 167.7 368.7 162.6 367 158.4 362 145.9 355.9 138.6 345 132.3 342.5 130.8 338.8 127.7 336.7 125.4 332 120 327.4 118.7 324.8 122 323.8 123.2 323 125.3 323 126.6 323 130.1 319.3 131.3 316.6 128.8 314.2 126.6 307.9 124.8 304.2 125.2 301.7 125.5 301.5 125.8 301.7 130 301.8 132.5 302.2 137.1 302.5 140.2 303.6 149.1 300.6 156.1 292.2 164.3 284.5 171.7 280.8 173.8 268.8 177.4 258.4 180.6 249.7 186.1 245.1 192.5 243.3 195 241.6 196.9 241.3 196.7 241.1 196.4 242 191.5 243.4 185.8 252.2 150.6 247.5 122.3 230.1 104.9 224.4 99.2 222.4 97.9 215.2 95.3 214.64 95.1 211.84 94.1 206.8 92.3 209.8 90.38 211.47 89.31 211.8 89.1 218.5 84.8 231.8 79.5 243.8 76.3 252.5 73.9 255.3 73.6 271.5 73.6 287.8 73.6 290.4 73.8 299.1 76.2 322.2 82.5 339.4 92.2 355 107.9 370.8 123.7 380.9 141.3 386.6 162.9 389.8 174.9 390.9 195.5 389 209.3 384.6 242.3 363.4 275.1 335.4 292.6 334.92 292.9 332.52 294.4 328.2 297.1 326.1 296.08 324.93 295.51 324.7 295.4 321 293.6 319.3 293.7 299.5 296.7 299.23 296.74 297.9 296.94 295.5 297.3L300.6 293.2C307.87 284.4 311.5 276.5 311.5 269.5Z" id="av4uPMxBL"/></defs><g visibility="inherit"><g visibility="inherit"><g visibility="inherit"><use xlink:href="#a2ZqQzT3F7" opacity="1" fill="#202020" fill-opacity="1"/><g><use xlink:href="#a2ZqQzT3F7" opacity="1" fill-opacity="0" stroke="#000000" stroke-width="1" stroke-opacity="0"/></g></g><g visibility="inherit"><use xlink:href="#hA22WP4dy" opacity="1" fill="#fefefe" fill-opacity="1"/><g><use xlink:href="#hA22WP4dy" opacity="1" fill-opacity="0" stroke="#000000" stroke-width="1" stroke-opacity="0"/></g></g><g visibility="inherit"><use xlink:href="#f1HxFE2AV" opacity="1" fill="#5197a8" fill-opacity="1"/><g><use xlink:href="#f1HxFE2AV" opacity="1" fill-opacity="0" stroke="#000000" stroke-width="1" stroke-opacity="0"/></g></g><g visibility="inherit"><use xlink:href="#aAcRbilbf" opacity="1" fill="#fefefe" fill-opacity="1"/><g><use xlink:href="#aAcRbilbf" opacity="1" fill-opacity="0" stroke="#000000" stroke-width="1" stroke-opacity="0"/></g></g><g visibility="inherit"><use xlink:href="#av4uPMxBL" opacity="1" fill="#5197a8" fill-opacity="1"/><g><use xlink:href="#av4uPMxBL" opacity="1" fill-opacity="0" stroke="#000000" stroke-width="1" stroke-opacity="0"/></g></g></g></g></svg>