<?xml version="1.0" encoding="utf-8"?>
<!-- Generator: Adobe Illustrator 21.0.2, SVG Export Plug-In . SVG Version: 6.00 Build 0)  -->
<svg version="1.1" xmlns="http://www.w3.org/2000/svg" xmlns:xlink="http://www.w3.org/1999/xlink" x="0px" y="0px"
	 viewBox="0 0 120.5 120.6" style="enable-background:new 0 0 120.5 120.6;" xml:space="preserve">
<style type="text/css">
	.st0{clip-path:url(#SVGID_2_);}
	.st1{fill:#202020;}
	.st2{fill-opacity:0;stroke:#000000;stroke-opacity:0;}
	.st3{fill:#5197A8;}
</style>
<g id="Layer_1">
</g>
<g id="Layer_2">
	<g>
		<defs>
			<ellipse id="SVGID_1_" cx="60.2" cy="60.3" rx="60.2" ry="60.3"/>
		</defs>
		<clipPath id="SVGID_2_">
			<use xlink:href="#SVGID_1_"  style="overflow:visible;"/>
		</clipPath>
		<g class="st0">
			<g>
				<g>
					<g>
						<path id="a2ZqQzT3F7" class="st1" d="M64.8,0.2l1.8,0.1l1.7,0.2l1.6,0.2l1.5,0.2l1.4,0.3l2.9,0.7l2.8,0.9l2.8,1l2.7,1.1
							l2.7,1.2l2.6,1.4L91.7,9l2.4,1.6l2.4,1.7l2.3,1.8l2.2,1.9l2.1,2l2,2.1l1.9,2.2l1.8,2.3l2.2,3.2l2,3.3l1.8,3.4l1.5,3.5l1.3,3.6
							l1.1,3.6l0.9,3.7l0.6,3.7l0.4,3.8l0.2,3.8l-0.1,3.8l-0.3,3.8l-0.6,3.7l-0.8,3.7l-1,3.6l-1.1,3.2l-1.3,3.1l-1.4,3l-1.6,2.9
							l-1.7,2.8l-1.8,2.7l-2,2.6l-2.1,2.4l-2.2,2.3l-2.4,2.2l-2.5,2.1l-2.6,1.9l-2.8,1.8l-2.9,1.7l-3,1.6l-1.7,0.8l-1.6,0.7
							l-1.6,0.7l-1.5,0.6l-1.5,0.5l-1.5,0.5l-1.5,0.4l-1.5,0.4l-1.5,0.3l-1.6,0.3l-1.6,0.2l-1.7,0.2l-1.8,0.1l-1.9,0.1l-2,0.1
							l-0.9,0l-0.9,0l-0.9,0l-0.9,0l-0.8,0l-0.8,0l-0.8,0l-0.8,0l-0.7,0l-0.7,0l-0.6,0l-0.6,0l-0.5,0l-0.4,0l-0.4-0.1l-1.8-0.3
							l-1.8-0.4l-1.9-0.5l-1.9-0.5l-1.9-0.6l-1.9-0.7l-1.9-0.7l-1.9-0.8l-1.8-0.8l-1.8-0.8l-1.7-0.9l-1.6-0.9l-1.6-0.9l-1.5-0.9
							l-1.4-1l-3.6-2.9l-3.3-3.1l-3.1-3.2l-2.8-3.4l-2.5-3.6l-2.3-3.7l-2-3.9l-1.7-4L2.5,78l-1.1-4.2l-0.8-4.3l-0.5-4.4L0,60.7
							l0.2-4.5l0.5-4.5L1,49.3L1.5,47L2,44.8l0.6-2.2l0.7-2.1L4,38.3l0.8-2.1l0.9-2l1-2l1.1-2l1.2-2l1.3-2l1.4-1.9l1.5-1.9l1.6-1.9
							l1.6-1.8l1.7-1.8l1.8-1.7l1.9-1.6l2-1.5l2.1-1.5l2.2-1.4l2.2-1.3l2.3-1.2l2.4-1.1l2.4-1l2.5-1l2.5-0.9l2.5-0.8l2.6-0.7L49,0.9
							l1.5-0.2l1.6-0.2l1.7-0.2l1.8-0.1l1.8-0.1l1.9,0h1.9l1.9,0L64.8,0.2z M3.2,43.3l-0.1,0.5L3,44.2l-0.1,0.6l-0.1,0.4l0,0.1
							l-0.5,2l-0.4,1.8l-0.3,1.7l-0.2,1.6l-0.2,1.6l-0.1,1.6L1,57.4l0,1.7l0,1.8l0.1,2L1.3,66l0.3,3L2,71.7l0.5,2.7L3.1,77l0.8,2.5
							l0.9,2.5l1.1,2.5l1.2,2.5l1.4,2.5l1,1.7l1,1.6l0.9,1.4l1,1.4l1,1.3l1,1.3l1.1,1.3l1.2,1.3l1.4,1.4l1.6,1.5l3.4,3.1l3.6,2.7
							l3.7,2.4l3.8,2.1l3.9,1.7l4.1,1.4l4.2,1.1l4.4,0.8l4.5,0.5l4.7,0.2l1,0l1,0l1,0l1,0l1,0l0.9,0l0.8,0l0.7-0.1l0.6-0.1l0.4-0.1
							l0.5-0.1l0.3-0.1l0.2-0.1l0-0.1l-0.1,0l-0.3,0l-0.5,0l-0.7,0l-0.9,0l-1.1,0l-3.7-0.2l-3.5-0.4l-3.3-0.6l-3.1-0.9l-3-1.1
							l-2.9-1.4l-2.7-1.7l-2.6-2l-2.6-2.2l-2.5-2.5l-2.1-2.5l-1.8-2.6l-1.5-2.7L29.1,95l-0.9-3.2l-0.6-3.5l-0.4-3.9L27.1,80l0.1-4.8
							l0.4-5.4l0.2-3.1l0.2-2.7l0.1-2.4l0-2l-0.1-1.7l-0.2-1.5L27.7,55l-0.3-1l-0.4-0.8l-0.5-0.7L25.9,52l-0.5-0.3l-0.6-0.2
							l-0.6-0.1l-0.6,0L23,51.4l-0.6,0.2l-0.5,0.3l-0.5,0.4L21,52.6l-0.4,0.6l-0.3,0.6l-0.3,0.7l-0.3,0.8l-0.2,0.8l-0.2,1l-0.2,1.1
							l-0.2,1.3l-0.1,1.4l-0.1,1.6l-0.1,0.8L18.5,64l-0.1,0.7l-0.1,0.7L18.3,66l-0.1,0.5l-0.1,0.4l-0.1,0.3L18,67.5l-0.1,0.1l-0.3,0
							l-0.5-0.2l-0.6-0.3l-0.7-0.5L15,66.1l-0.8-0.7l-0.8-0.7L12.5,64l-0.7-0.7l-0.6-0.7l-1.1-1.4l-1-1.4l-0.9-1.5l-0.8-1.6
							l-0.7-1.7l-0.6-1.8l-0.6-2l-0.5-2.2l-0.5-2.4l-0.5-2.7l0-0.2L4,43.6l0-0.2l-0.1-0.3l-0.1-0.3L3.7,42l-0.1-0.4l-0.3,1.2
							L3.2,43.3z M27,11.4l-0.3,0.1l-0.3,0.2L26,12l-0.4,0.3l-0.4,0.3l-0.5,0.3l-0.5,0.4l-0.5,0.4l-0.5,0.4l-0.6,0.5l-0.6,0.5
							l-0.6,0.5l-0.6,0.5l-0.6,0.5l-0.6,0.6L19,17.8l-0.6,0.6l-0.7,0.7l-0.7,0.7l-0.7,0.7l-0.7,0.7L15,22l-0.6,0.7l-0.6,0.7
							l-0.6,0.7L12.7,25l-0.6,0.8l-0.5,0.8L11,27.3l-0.5,0.8L10,29l-0.5,0.9l-0.5,0.9l-0.5,0.9l-0.5,1l-0.5,1l-2.6,4.9l0.3,4.5
							l0.1,1.4l0.1,1.3l0.2,1.3l0.2,1.2L6,49.5l0.3,1.2l0.3,1.1l0.4,1.1L7.3,54l0.4,1l0.5,1l0.5,1l0.5,1L9.8,59l0.6,0.9l0.7,0.9
							l0.7,0.9l0.7,0.8l0.8,0.8l0.3,0.3l0.3,0.3L14,64l0.3,0.2l0.2,0.2l0.2,0.2l0.2,0.2l0.2,0.2l0.2,0.2l0.2,0.2l0.2,0.2l0.2,0.1
							l0.2,0.1l0.2,0.1l0.1,0.1l0.1,0.1l0.1,0.1l0.1,0l0.1,0l0,0l0-0.1l0-0.1L17,66l0.1-0.2l0-0.2l0.1-0.2l0.1-0.3l0.1-0.3l0.1-0.3
							l0.1-0.3l0.1-0.4l0.1-0.4l0.1-0.4l0.1-0.4l0.1-0.4l0.1-0.5l0-0.5l0.1-0.5l0.1-1.2l0.1-1.1l0.2-1l0.2-0.9l0.2-0.9l0.2-0.8
							l0.2-0.7l0.2-0.7l0.3-0.6l0.3-0.5l0.3-0.5l0.3-0.4l0.4-0.3l0.4-0.3l0.4-0.2l0.4-0.2l0.5-0.1l0.5-0.1l0.5,0l0.3,0l0.3,0l0.3,0
							l0.3,0.1l0.3,0.1l0.3,0.1l0.2,0.1l0.2,0.1l0.2,0.2l0.2,0.2l0.2,0.2l0.2,0.2l0.2,0.2l0.2,0.3l0.2,0.3l0.2,0.3l0.2,0.3l0.2,0.3
							l0.2,0.4l0.2,0.4l0.2,0.5l0.1,0.5l0.1,0.6l0.1,0.6l0.1,0.7l0.1,0.8l0.1,0.8l0,0.9l0,1v1l0,1.1l0,1.2l0,1.3l-0.1,1.4l-0.1,1.5
							l-0.1,1.6l-0.1,1.7l-0.1,1.8l-0.1,1.9l-0.1,1.8l-0.1,1.8l0,1.7l0,1.6l0.1,1.6l0.1,1.5l0.1,1.5l0.2,1.4l0.2,1.4l0.3,1.3
							l0.3,1.3l0.3,1.3l0.4,1.2l0.4,1.2l0.5,1.1l0.5,1.1l0.5,1.1l0.6,1l0.9,1.3l0.9,1.3l1,1.3l1.1,1.3l1.2,1.2l1.3,1.2l1.3,1.1
							l1.4,1.1l1.4,1l1.5,1l1.5,0.9l1.5,0.8l1.5,0.8l1.5,0.7l1.5,0.6l1.5,0.5l1.5,0.4l1.5,0.3l1.5,0.2l0.8,0.1l0.9,0.1l1,0.1
							l1.1,0.1l1.2,0.1l1.2,0l1.2,0l1.3,0l1.3,0h1.2l1.2,0l1.2,0l1.1,0l1,0l0.9-0.1l0.8-0.1l0.7-0.1l0.6-0.1l0.4-0.1l0.5-0.1
							l0.6-0.2l0.6-0.2l0.6-0.2l0.6-0.2l0.6-0.2l0.7-0.3l0.6-0.3l0.6-0.3l0.6-0.3l0.6-0.3l0.5-0.2l0.5-0.2l0.4-0.2l0.4-0.2l0.3-0.2
							l0.2-0.2l0.1-0.1l0.1-0.1l0-0.1l-0.1-0.1l-0.1-0.1l-0.2-0.1l-0.2-0.1l-0.3-0.1l-0.3-0.1l-0.4,0l-0.4,0l-0.5,0l-0.5,0l-0.6,0
							l-0.6,0l-0.7,0l-0.7,0.1l-0.8,0.1l-0.8,0.1l-0.9,0.1l-0.9,0.1l-1.2,0.2l-1.1,0.1l-1,0.1l-0.9,0.1l-0.7,0.1l-0.6,0l-0.5,0
							l-0.4,0l-0.3,0l-0.2-0.1l-0.1-0.1l-0.1-0.1l0-0.2l0.1-0.2l0.2-0.2l0.3-0.3l0.3-0.3l0.4-0.4l0.5-0.4l0.8-0.6l0.8-0.6l0.7-0.6
							l0.6-0.6l0.6-0.6l0.5-0.7l0.5-0.7l0.4-0.7l0.4-0.7l0.3-0.7l0.3-0.7l0.2-0.8l0.2-0.8l0.1-0.8l0.1-0.9l0.1-0.9l0-0.9l0-1l-0.1-1
							l0-0.4l0-0.4l0-0.4l0-0.4l0-0.4l0-0.4l0-0.4l0-0.4l0-0.4l0-0.4l0-0.3l0-0.3l0-0.3l0-0.3l0-0.3l0-0.2l0-0.2l0-0.2l0-0.2
							l-0.3-1.8l3.2-1.6l0.8-0.4l0.7-0.4l0.7-0.4l0.7-0.4l0.7-0.4l0.7-0.4l0.7-0.4l0.7-0.4l0.7-0.5l0.7-0.5l0.7-0.5l0.7-0.5l0.7-0.6
							l0.7-0.6l0.7-0.6l0.7-0.6l0.8-0.7l0.8-0.7l0.8-0.7l0.5-0.4l0.5-0.4l0.5-0.4l0.5-0.4l0.5-0.4l0.5-0.4l0.4-0.4l0.4-0.4l0.4-0.3
							l0.4-0.3l0.4-0.3l0.4-0.3l0.4-0.3l0.4-0.3l0.4-0.2l0.4-0.2l0.4-0.2l0.4-0.2l0.4-0.2l1-0.5l0.9-0.5l0.8-0.5l0.7-0.4l0.7-0.4
							l0.6-0.4l0.5-0.4l0.4-0.4l0.4-0.4l0.3-0.3l0.2-0.3l0.2-0.3l0.1-0.3l0-0.3l-0.1-0.3l-0.1-0.3l-0.2-0.3l-0.2-0.3l-0.3-0.3
							l-0.2-0.1l-0.1-0.1l-0.1-0.1l-0.1-0.1l-0.1-0.1l-0.1-0.1l-0.1,0l-0.1,0l-0.1,0h-0.1l-0.1,0l-0.1,0l-0.1,0l-0.2,0.1l-0.2,0.1
							l-0.2,0.1l-0.2,0.1l-0.2,0.1l-0.3,0.1l-0.5,0.2l-0.5,0.2l-0.5,0.2l-0.6,0.2l-0.6,0.2l-0.6,0.2l-0.6,0.2l-0.6,0.2l-0.6,0.2
							l-0.6,0.2l-0.6,0.2l-0.5,0.2l-0.5,0.1l-0.5,0.1l-0.5,0.1l-0.4,0.1l-0.4,0.1l-0.3,0l-0.3,0l-0.3,0l-0.3,0l-0.2,0l-0.2-0.1
							l-0.2-0.1l-0.2-0.1l-0.2-0.1l-0.2-0.1L94.4,67l-0.2-0.2l-0.2-0.2l-0.2-0.2l-0.1-0.2L93.6,66l-0.1-0.3l-0.1-0.3l-0.1-0.3
							l-0.1-0.3l-0.1-0.3l-0.1-0.3l0-0.3l0-0.3l0-0.3l0-0.2l0.1-0.2l0.1-0.2l0.1-0.2l0.2-0.2l0.2-0.1L94,62l0.3-0.1l0.3-0.1l0.4-0.1
							l0.4-0.1l0.5-0.1l0.5-0.1l0.6-0.1l0.7-0.1l0.7-0.1l0.7-0.1l0.7-0.1l0.6-0.1l0.6-0.1l0.6-0.1l0.5-0.1l0.5-0.2l0.5-0.2l0.5-0.2
							l0.4-0.2l0.4-0.2l0.4-0.2l0.4-0.3l0.4-0.3l0.4-0.3l0.4-0.3l0.4-0.4l0.4-0.4L108,57l0.5-0.5l0.5-0.5l0.4-0.5l0.4-0.5l0.3-0.4
							l0.3-0.4l0.2-0.4l0.2-0.4l0.1-0.4l0.1-0.4l0-0.4l0-0.4l-0.1-0.4l-0.1-0.4l-0.2-0.4l-0.2-0.4l-0.2-0.4l-0.3-0.4l-0.1-0.1
							l-0.1-0.2l-0.1-0.2l-0.1-0.2l-0.1-0.2l-0.1-0.2l-0.1-0.3l-0.1-0.3l-0.1-0.3l-0.1-0.3l-0.1-0.3l-0.1-0.3l-0.1-0.3l-0.1-0.3
							l-0.1-0.3l-0.1-0.3l-0.1-0.3l-0.1-0.3l-0.1-0.3l-0.1-0.3l-0.1-0.3l-0.1-0.3l-0.1-0.3l-0.1-0.3l-0.1-0.3l-0.1-0.3l-0.1-0.3
							l-0.1-0.3l-0.1-0.3l-0.1-0.3l-0.1-0.3l-0.1-0.3l-0.1-0.3l-0.1-0.2l-0.1-0.2l-0.1-0.2l-0.1-0.2l-0.1-0.2l-0.3-0.4l-0.3-0.4
							l-0.3-0.4l-0.4-0.4l-0.4-0.4l-0.4-0.4l-0.4-0.5l-0.5-0.5l-0.5-0.5l-0.5-0.4l-0.5-0.4l-0.5-0.4l-0.5-0.4l-0.5-0.4l-0.5-0.4
							L97.7,32l-0.5-0.3l-0.5-0.3l-0.5-0.3L96,31l-0.2-0.1l-0.2-0.1l-0.2-0.1l-0.2-0.1l-0.2-0.1l-0.2-0.1L94.5,30l-0.2-0.1l-0.2-0.1
							L94,29.6l-0.1-0.1l-0.1-0.1l-0.1-0.1l-0.1-0.1l-0.1-0.1L93.3,29l-0.1-0.1l-0.1-0.1l-0.2-0.3l-0.2-0.3l-0.2-0.3l-0.2-0.3
							l-0.2-0.3l-0.3-0.2l-0.3-0.2l-0.3-0.2l-0.3-0.2l-0.3-0.2l-0.3-0.2L90.3,26L90,25.8l-0.3-0.1l-0.2-0.1l-0.2-0.1l-0.2-0.1
							l-0.2,0l-0.2,0l-0.2,0l-0.2,0l-0.2,0L88,25.4l-0.1,0.1l-0.1,0.1l-0.1,0.1l-0.1,0.1l-0.1,0.1l-0.1,0.1l-0.1,0.2l-0.1,0.2
							l-0.1,0.2l0,0.2l0,0.2l0,0.3l0,0.3l0,0.3l0,0.3l0,0.2l0,0.2l0,0.2l0,0.1l0,0.1l0,0.1l0,0.1l-0.1,0.1l-0.1,0.1l-0.1,0.1
							l-0.1,0.1l-0.1,0.1l-0.1,0.1l-0.1,0.1L85.9,30L85.8,30l-0.2,0.1l-0.2,0.1l-0.2,0.1l-0.2,0.1l-0.2,0.1l-0.2,0l-0.2,0l-0.2,0
							l-0.2,0l-0.1,0l-0.1,0l-0.1,0l-0.1,0l-0.1,0l-0.1,0l-0.1-0.1L83,30.3l-0.1-0.1l-0.1-0.1l-0.1-0.1L82.6,30l-0.1-0.1l-0.2-0.2
							l-0.2-0.2l-0.2-0.2l-0.2-0.2l-0.2-0.2l-0.3-0.2l-0.3-0.1l-0.3-0.1l-0.3-0.1L80,28.4l-0.3-0.1l-0.3-0.1L79,28.1L78.7,28
							L78.4,28L78,27.9l-0.3,0l-0.3,0l-0.3,0H77l-0.1,0l-0.1,0l-0.1,0l-0.1,0l-0.1,0l-0.1,0L76.3,28l-0.1,0.1l-0.1,0.1l-0.1,0.1
							l0,0.1l0,0.1l0,0.1l0,0.1l0,0.1l0,0.2l0,0.2v0.2l0,0.1l0,0.1l0,0.2l0,0.2l0,0.2l0,0.2l0,0.2l0,0.2l0,0.2l0,0.2l0.1,0.2
							l0.1,0.2l0.1,0.2l0.1,0.2l0.1,0.2l0.1,0.2l0.1,0.2l0.1,0.2l0.1,0.2l0.1,0.3l0.1,0.3l0.1,0.2l0.1,0.2l0.1,0.2l0.1,0.2l0,0.2
							l0,0.2l0,0.2l0,0.2l0,0.2l0,0.2l0,0.2l0,0.2l0,0.2l0,0.2l-0.1,0.2L77,37l-0.1,0.3l-0.2,0.7l-0.2,0.7l-0.2,0.6l-0.2,0.6
							l-0.2,0.6L75.7,41l-0.3,0.6l-0.3,0.5l-0.3,0.5l-0.3,0.5l-0.3,0.5l-0.3,0.5l-0.4,0.5l-0.4,0.5l-0.4,0.5l-0.4,0.5l-0.4,0.5
							L71.5,47L71,47.5L70.4,48l-0.6,0.5l-0.5,0.5l-0.5,0.4l-0.5,0.4l-0.5,0.4l-0.5,0.4l-0.5,0.3l-0.6,0.3l-0.6,0.3l-0.6,0.3
							l-0.6,0.3l-0.6,0.3l-0.7,0.3l-0.7,0.3l-0.8,0.3l-0.8,0.3l-0.8,0.3L58.9,54l-1,0.3L57,54.6l-0.9,0.3l-0.8,0.3l-0.8,0.3L53.8,56
							l-0.7,0.4l-0.7,0.4l-0.6,0.4l-0.6,0.5l-0.6,0.5L50,58.8l-0.6,0.6l-0.6,0.7l-0.7,0.8l-0.7,0.8l-0.7,0.9l-0.8,1l-0.8,1.1
							L44.9,65l-0.2,0.3l-0.2,0.2l-0.2,0.2L44,65.7l-0.1,0l-0.1-0.1l-0.1-0.1l-0.1-0.2l0-0.2l0-0.3l0-0.4l0.1-0.4l0.1-0.5l0.1-0.6
							l0.1-0.7l0.2-0.7l0.2-0.8l0.2-0.8l0.7-3l0.6-2.9l0.5-2.8l0.4-2.8l0.3-2.7l0.2-2.6l0-2.5l-0.1-2.4L47,35.8l-0.3-2.2l-0.4-2.2
							l-0.5-2.1l-0.6-2l-0.8-1.9l-0.9-1.8l-1-1.7l-1.1-1.6l-1.2-1.5l-1.3-1.4L38.6,17l-0.3-0.3l-0.3-0.3l-0.3-0.3l-0.3-0.3l-0.3-0.3
							l-0.3-0.2L36.3,15L36,14.8l-0.3-0.2l-0.3-0.2L35,14.2L34.6,14l-0.4-0.2l-0.4-0.2l-0.4-0.2L33,13.3l-0.5-0.2L32,12.9l-0.4-0.1
							l-0.3-0.1L31,12.5l-0.3-0.1l-0.3-0.1L30,12.1L29.7,12l-0.3-0.1l-0.3-0.1l-0.3-0.1l-0.2-0.1l-0.2-0.1l-0.2-0.1L28,11.5l-0.2,0
							l-0.1,0l-0.1,0l-0.1,0l-0.1,0l-0.2,0L27,11.4z M57.8,1.1l-1,0l-0.9,0l-0.9,0l-0.8,0l-0.7,0l-0.7,0l-0.6,0l-0.6,0.1L51,1.5
							l-0.6,0.1l-0.5,0.1l-0.5,0.1l-0.5,0.1L48.2,2l-0.6,0.2L47,2.3l-0.7,0.2l-1,0.3l-1,0.3l-1,0.3l-1,0.3l-1,0.3l-1,0.3l-0.9,0.3
							l-0.9,0.3l-0.9,0.3l-0.9,0.4L36,6l-0.8,0.4l-0.8,0.4l-0.8,0.4l-0.7,0.4l-0.7,0.4l-0.7,0.4l-0.6,0.4l-0.6,0.3l-2.5,1.6L32,12
							l0.5,0.2l0.5,0.2l0.5,0.2l0.4,0.2l0.4,0.2l0.4,0.2l0.4,0.2l0.3,0.2l0.3,0.2l0.3,0.2l0.3,0.2l0.3,0.2l0.3,0.3l0.3,0.3l0.3,0.3
							l0.4,0.3l0.4,0.4l0.4,0.4l0.4,0.4l1.3,1.4l1.2,1.5l1.1,1.6l1,1.7l0.9,1.8l0.8,1.8l0.7,1.9l0.6,2l0.5,2.1l0.4,2.2l0.2,2.2
							l0.1,2.3l0,2.4l-0.1,2.4L48,46.6l-0.3,2.6l-0.4,2.6l-0.5,2.7l-0.6,2.8L46,57.7l-0.1,0.4l-0.1,0.4L45.7,59l-0.1,0.4l-0.1,0.4
							l-0.1,0.4l-0.1,0.4l-0.1,0.3l-0.1,0.3l-0.1,0.3l0,0.3l0,0.2l0,0.2l0,0.2l0,0.2l0,0.1l0,0.1l0,0l0,0l0,0l0,0l0.1,0l0.1-0.1
							l0.1-0.1l0.1-0.1l0.1-0.1l0.1-0.1l0.1-0.1l0.1-0.1l0.1-0.1l0.1-0.2l0.1-0.2l0.1-0.2l0.1-0.2l0.1-0.2l0.1-0.2l0.1-0.2l0.4-0.5
							l0.4-0.5l0.4-0.5l0.5-0.5l0.5-0.5l0.5-0.5l0.6-0.4l0.6-0.4l0.6-0.4l0.6-0.4l0.7-0.4l0.7-0.4l0.7-0.4l0.7-0.3l0.7-0.3l0.8-0.3
							l0.8-0.3l0.8-0.3l0.8-0.3l0.9-0.3l0.8-0.3l0.8-0.3l0.7-0.3l0.7-0.3l0.7-0.3l0.6-0.3l0.6-0.3l0.6-0.3l0.5-0.3l0.5-0.3l0.5-0.3
							l0.5-0.4l0.5-0.4l0.5-0.4l0.5-0.4l0.5-0.5l0.6-0.5l0.6-0.6l0.6-0.6l0.6-0.6l0.6-0.6l0.5-0.6l0.5-0.6l0.4-0.6l0.4-0.6l0.3-0.6
							l0.3-0.6l0.3-0.6l0.2-0.6l0.2-0.6l0.1-0.6l0.1-0.6l0.1-0.6l0-0.7v-0.7l0-0.7l-0.1-0.7l0-0.2l0-0.3l0-0.3l0-0.3l0-0.3l0-0.3
							l0-0.3l0-0.3l0-0.3l0-0.3l0-0.3l0-0.3l0-0.3l0-0.3l0-0.3l0-0.2l0-0.2l0-0.2l0-0.2l0-0.3l0-0.3l0-0.3v-0.2l0-0.2l0-0.2l0-0.2
							l0-0.1l0-0.1l0-0.1l0.1-0.1l0.1-0.1l0.1-0.1l0.1,0l0.1,0l0.1,0l0.2,0l0.2,0l0.2,0l0.3,0l0.3,0l0.3,0l0.4,0l0.4,0l0.4,0.1
							l0.4,0.1l0.4,0.1l0.4,0.1l0.4,0.1l0.4,0.1l0.3,0.1l0.3,0.1l0.3,0.1l0.3,0.2l0.3,0.2l0.3,0.2l0.2,0.2l0.2,0.2l0.2,0.2l0.2,0.2
							l0.2,0.1l0.2,0.1l0.2,0.1l0.2,0l0.2,0l0.2,0l0.2,0l0.2-0.1l0.2-0.1l0.2-0.1l0.2-0.1l0.1-0.2l0.1-0.2l0.1-0.2l0.1-0.2l0-0.2
							l0-0.3l0-0.1l0-0.1l0-0.1l0-0.1l0-0.1l0-0.1l0-0.1l0-0.1l0-0.1l0.1-0.1l0.1-0.1l0.1-0.1l0.1-0.1l0.1-0.1l0.1-0.1l0.1-0.1
							l0.1-0.1l0.1-0.1l0.1-0.1l0.2-0.2l0.2-0.2l0.2-0.2l0.3-0.1l0.3-0.1l0.3-0.1l0.3,0l0.3,0l0.3,0.1l0.3,0.1l0.3,0.1l0.3,0.2
							l0.3,0.2l0.4,0.2l0.4,0.3l0.4,0.3l0.4,0.3l0.4,0.4l0.4,0.4l0.2,0.2l0.2,0.2l0.2,0.2l0.2,0.2l0.2,0.2l0.2,0.2l0.2,0.2l0.2,0.2
							l0.2,0.2l0.2,0.2l0.2,0.2l0.2,0.2l0.2,0.2l0.2,0.2l0.2,0.2l0.2,0.2l0.2,0.2l0.2,0.1l0.2,0.1l0.8,0.5l0.8,0.5l0.8,0.5l0.7,0.5
							l0.7,0.6l0.7,0.6l0.6,0.6l0.6,0.6l0.6,0.6l0.6,0.7l0.5,0.7l0.5,0.7l0.5,0.7l0.5,0.8l0.4,0.8l0.4,0.8l0.4,0.9l0.4,0.9l0.4,1
							l0.1,0.3l0.1,0.3l0.1,0.3l0.2,0.3l0.2,0.3l0.2,0.3l0.2,0.3l0.2,0.3l0.2,0.3l0.2,0.3l0.2,0.3l0.2,0.3l0.1,0.3l0.1,0.3l0.1,0.3
							l0.1,0.2l0.1,0.2l0.1,0.2l0.1,0.2l0.2,0.4l0.2,0.3l0.2,0.3l0.2,0.3l0.1,0.3l0.1,0.3l0.1,0.3l0,0.3l0,0.3l0,0.3l0,0.3l-0.1,0.3
							l-0.1,0.3l-0.1,0.3l-0.2,0.3l-0.2,0.4l-0.2,0.4l-0.2,0.4l-0.3,0.4l-0.4,0.6l-0.5,0.6l-0.5,0.6l-0.6,0.6l-0.6,0.5l-0.6,0.5
							l-0.7,0.5l-0.7,0.4l-0.7,0.4l-0.7,0.4l-0.8,0.3l-0.8,0.3l-0.8,0.3l-0.8,0.2l-0.8,0.2l-0.8,0.2l-0.8,0.1L98,62.3l-0.8,0l-0.5,0
							l-0.4,0l-0.4,0l-0.3,0l-0.3,0.1l-0.3,0.1l-0.2,0.1l-0.2,0.1l-0.2,0.1L94.2,63l-0.1,0.2L94,63.4l0,0.2l0,0.2l0,0.2l0,0.3
							l0.1,0.3l0.1,0.3l0.1,0.3l0.1,0.3l0.2,0.3l0.2,0.2l0.2,0.2l0.2,0.2l0.3,0.1l0.3,0.1l0.4,0.1l0.4,0l0.4,0l0.5,0l0.5-0.1
							l0.6-0.1l0.6-0.1l0.6-0.2l0.7-0.2l0.7-0.2l0.8-0.3l0.8-0.3l0.7-0.3l0.7-0.3l0.6-0.2l0.6-0.2l0.5-0.2l0.5-0.2l0.4-0.1l0.4-0.1
							l0.4-0.1l0.3-0.1l0.3,0h0.3l0.3,0l0.2,0l0.2,0.1l0.2,0.1l0.2,0.1l0.2,0.2l0.2,0.2l0.3,0.4l0.2,0.4l0.1,0.4l0.1,0.4l0,0.4
							l-0.1,0.4l-0.1,0.4l-0.2,0.4l-0.3,0.4l-0.3,0.4l-0.4,0.4l-0.5,0.5l-0.5,0.5l-0.6,0.5l-0.7,0.5l-0.7,0.5l-0.8,0.5l-0.8,0.4
							l-0.9,0.4l-0.3,0.2l-0.3,0.2l-0.3,0.2l-0.3,0.2l-0.4,0.2l-0.4,0.2l-0.4,0.2l-0.4,0.3l-0.4,0.3l-0.4,0.3l-0.4,0.3l-0.4,0.3
							l-0.4,0.3l-0.4,0.3L98,76.2l-0.4,0.3l-0.4,0.4l-0.4,0.4l-0.4,0.4l-0.8,0.8l-0.8,0.7l-0.8,0.7l-0.7,0.6l-0.7,0.6l-0.7,0.6
							l-0.7,0.5l-0.7,0.5l-0.6,0.5l-0.6,0.5l-0.6,0.4L88,84.5l-0.6,0.4l-0.6,0.4L86,85.8l-0.7,0.4l-0.7,0.4L84,86.9l-0.7,0.4
							l-3.9,2.1l0.4,2.8l0,0.3l0,0.3l0,0.3l0,0.3l0,0.3l0,0.4l0,0.4l0,0.4l0,0.4l0,0.4l0,0.4l0,0.4l0,0.4l0,0.4l0,0.4l0,0.4l0,0.4
							l0,0.4v0.4l0,0.8l0,0.8l-0.1,0.8l-0.1,0.7l-0.1,0.7l-0.2,0.7l-0.2,0.7l-0.2,0.6l-0.2,0.6l-0.3,0.6l-0.3,0.6l-0.3,0.6l-0.4,0.6
							l-0.4,0.5l-0.4,0.5l-0.5,0.5l-0.5,0.5l-0.5,0.5l-0.6,0.5l-2.6,2l2-0.3l0.2,0l0.2,0l0.2,0l0.3,0l0.3,0l0.3,0l0.3-0.1l0.3,0
							l0.4-0.1l0.4-0.1l0.4-0.1l0.4-0.1l0.4-0.1l0.4-0.1L79,112l0.4-0.1l0.4-0.1l0.4-0.1l0.4-0.1l0.6-0.1l0.5-0.1l0.5-0.1l0.5-0.1
							l0.4,0l0.4,0l0.4,0l0.3,0l0.3,0l0.3,0l0.3,0l0.2,0l0.2,0l0.2,0.1l0.2,0.1l0.2,0.1l0.2,0.1l0.2,0.1l0.2,0.1l1.8,0.9l3.6-2.2
							l2.2-1.4l2.1-1.6l2.1-1.7l2-1.8l1.9-1.9l1.8-2l1.8-2.1l1.7-2.1l1.6-2.2l1.5-2.3l1.4-2.4l1.3-2.4l1.2-2.5l1.1-2.5l0.9-2.5
							l0.8-2.6l0.7-2.6l0.6-2.6l0.4-2.6l0.1-1.1l0.1-1.2l0.1-1.2l0.1-1.2l0-1.3l0-1.3l0-1.3l0-1.3l0-1.3l-0.1-1.3l-0.1-1.3l-0.1-1.3
							l-0.1-1.3l-0.1-1.2l-0.2-1.2l-0.2-1.2l-0.2-1.1l-0.2-1.1l-0.2-1l-0.5-1.7l-0.5-1.7l-0.5-1.6l-0.6-1.6l-0.6-1.6l-0.7-1.5
							l-0.7-1.5l-0.7-1.5l-0.8-1.5l-0.8-1.4l-0.9-1.4l-0.9-1.4l-1-1.4l-1-1.3l-1-1.3l-1.1-1.3l-1.1-1.3l-1.2-1.3l-1.2-1.3l-1.2-1.2
							l-1.2-1.2l-1.3-1.1l-1.3-1.1l-1.3-1l-1.3-1l-1.4-0.9l-1.4-0.9L90.1,9l-1.4-0.8l-1.5-0.8l-1.5-0.7L84.1,6l-1.6-0.7l-1.6-0.6
							l-1.7-0.6l-1.7-0.6l-1.8-0.5L74,2.4l-0.7-0.2l-0.6-0.2l-0.6-0.1l-0.6-0.1L71,1.7l-0.5-0.1l-0.5-0.1l-0.6-0.1l-0.6-0.1
							l-0.6-0.1l-0.6,0l-0.7,0l-0.7,0l-0.8,0l-0.9,0l-0.9,0l-1,0l-1.1,0h-1.2H59L57.8,1.1z"/>
					</g>
					<g>
						<g>
							<path id="a2ZqQzT3F7_1_" class="st2" d="M64.8,0.2l1.8,0.1l1.7,0.2l1.6,0.2l1.5,0.2l1.4,0.3l2.9,0.7l2.8,0.9l2.8,1l2.7,1.1
								l2.7,1.2l2.6,1.4L91.7,9l2.4,1.6l2.4,1.7l2.3,1.8l2.2,1.9l2.1,2l2,2.1l1.9,2.2l1.8,2.3l2.2,3.2l2,3.3l1.8,3.4l1.5,3.5
								l1.3,3.6l1.1,3.6l0.9,3.7l0.6,3.7l0.4,3.8l0.2,3.8l-0.1,3.8l-0.3,3.8l-0.6,3.7l-0.8,3.7l-1,3.6l-1.1,3.2l-1.3,3.1l-1.4,3
								l-1.6,2.9l-1.7,2.8l-1.8,2.7l-2,2.6l-2.1,2.4l-2.2,2.3l-2.4,2.2l-2.5,2.1l-2.6,1.9l-2.8,1.8l-2.9,1.7l-3,1.6l-1.7,0.8
								l-1.6,0.7l-1.6,0.7l-1.5,0.6l-1.5,0.5l-1.5,0.5l-1.5,0.4l-1.5,0.4l-1.5,0.3l-1.6,0.3l-1.6,0.2l-1.7,0.2l-1.8,0.1l-1.9,0.1
								l-2,0.1l-0.9,0l-0.9,0l-0.9,0l-0.9,0l-0.8,0l-0.8,0l-0.8,0l-0.8,0l-0.7,0l-0.7,0l-0.6,0l-0.6,0l-0.5,0l-0.4,0l-0.4-0.1
								l-1.8-0.3l-1.8-0.4l-1.9-0.5l-1.9-0.5l-1.9-0.6l-1.9-0.7l-1.9-0.7l-1.9-0.8l-1.8-0.8l-1.8-0.8l-1.7-0.9l-1.6-0.9l-1.6-0.9
								l-1.5-0.9l-1.4-1l-3.6-2.9l-3.3-3.1l-3.1-3.2l-2.8-3.4l-2.5-3.6l-2.3-3.7l-2-3.9l-1.7-4L2.5,78l-1.1-4.2l-0.8-4.3l-0.5-4.4
								L0,60.7l0.2-4.5l0.5-4.5L1,49.3L1.5,47L2,44.8l0.6-2.2l0.7-2.1L4,38.3l0.8-2.1l0.9-2l1-2l1.1-2l1.2-2l1.3-2l1.4-1.9l1.5-1.9
								l1.6-1.9l1.6-1.8l1.7-1.8l1.8-1.7l1.9-1.6l2-1.5l2.1-1.5l2.2-1.4l2.2-1.3l2.3-1.2l2.4-1.1l2.4-1l2.5-1l2.5-0.9l2.5-0.8
								l2.6-0.7L49,0.9l1.5-0.2l1.6-0.2l1.7-0.2l1.8-0.1l1.8-0.1l1.9,0h1.9l1.9,0L64.8,0.2z M3.2,43.3l-0.1,0.5L3,44.2l-0.1,0.6
								l-0.1,0.4l0,0.1l-0.5,2l-0.4,1.8l-0.3,1.7l-0.2,1.6l-0.2,1.6l-0.1,1.6L1,57.4l0,1.7l0,1.8l0.1,2L1.3,66l0.3,3L2,71.7l0.5,2.7
								L3.1,77l0.8,2.5l0.9,2.5l1.1,2.5l1.2,2.5l1.4,2.5l1,1.7l1,1.6l0.9,1.4l1,1.4l1,1.3l1,1.3l1.1,1.3l1.2,1.3l1.4,1.4l1.6,1.5
								l3.4,3.1l3.6,2.7l3.7,2.4l3.8,2.1l3.9,1.7l4.1,1.4l4.2,1.1l4.4,0.8l4.5,0.5l4.7,0.2l1,0l1,0l1,0l1,0l1,0l0.9,0l0.8,0l0.7-0.1
								l0.6-0.1l0.4-0.1l0.5-0.1l0.3-0.1l0.2-0.1l0-0.1l-0.1,0l-0.3,0l-0.5,0l-0.7,0l-0.9,0l-1.1,0l-3.7-0.2l-3.5-0.4l-3.3-0.6
								l-3.1-0.9l-3-1.1l-2.9-1.4l-2.7-1.7l-2.6-2l-2.6-2.2l-2.5-2.5l-2.1-2.5l-1.8-2.6l-1.5-2.7L29.1,95l-0.9-3.2l-0.6-3.5
								l-0.4-3.9L27.1,80l0.1-4.8l0.4-5.4l0.2-3.1l0.2-2.7l0.1-2.4l0-2l-0.1-1.7l-0.2-1.5L27.7,55l-0.3-1l-0.4-0.8l-0.5-0.7L25.9,52
								l-0.5-0.3l-0.6-0.2l-0.6-0.1l-0.6,0L23,51.4l-0.6,0.2l-0.5,0.3l-0.5,0.4L21,52.6l-0.4,0.6l-0.3,0.6l-0.3,0.7l-0.3,0.8
								l-0.2,0.8l-0.2,1l-0.2,1.1l-0.2,1.3l-0.1,1.4l-0.1,1.6l-0.1,0.8L18.5,64l-0.1,0.7l-0.1,0.7L18.3,66l-0.1,0.5l-0.1,0.4
								l-0.1,0.3L18,67.5l-0.1,0.1l-0.3,0l-0.5-0.2l-0.6-0.3l-0.7-0.5L15,66.1l-0.8-0.7l-0.8-0.7L12.5,64l-0.7-0.7l-0.6-0.7
								l-1.1-1.4l-1-1.4l-0.9-1.5l-0.8-1.6l-0.7-1.7l-0.6-1.8l-0.6-2l-0.5-2.2l-0.5-2.4l-0.5-2.7l0-0.2L4,43.6l0-0.2l-0.1-0.3
								l-0.1-0.3L3.7,42l-0.1-0.4l-0.3,1.2L3.2,43.3z M27,11.4l-0.3,0.1l-0.3,0.2L26,12l-0.4,0.3l-0.4,0.3l-0.5,0.3l-0.5,0.4
								l-0.5,0.4l-0.5,0.4l-0.6,0.5l-0.6,0.5l-0.6,0.5l-0.6,0.5l-0.6,0.5l-0.6,0.6L19,17.8l-0.6,0.6l-0.7,0.7l-0.7,0.7l-0.7,0.7
								l-0.7,0.7L15,22l-0.6,0.7l-0.6,0.7l-0.6,0.7L12.7,25l-0.6,0.8l-0.5,0.8L11,27.3l-0.5,0.8L10,29l-0.5,0.9l-0.5,0.9l-0.5,0.9
								l-0.5,1l-0.5,1l-2.6,4.9l0.3,4.5l0.1,1.4l0.1,1.3l0.2,1.3l0.2,1.2L6,49.5l0.3,1.2l0.3,1.1l0.4,1.1L7.3,54l0.4,1l0.5,1l0.5,1
								l0.5,1L9.8,59l0.6,0.9l0.7,0.9l0.7,0.9l0.7,0.8l0.8,0.8l0.3,0.3l0.3,0.3L14,64l0.3,0.2l0.2,0.2l0.2,0.2l0.2,0.2l0.2,0.2
								l0.2,0.2l0.2,0.2l0.2,0.2l0.2,0.1l0.2,0.1l0.2,0.1l0.1,0.1l0.1,0.1l0.1,0.1l0.1,0l0.1,0l0,0l0-0.1l0-0.1L17,66l0.1-0.2l0-0.2
								l0.1-0.2l0.1-0.3l0.1-0.3l0.1-0.3l0.1-0.3l0.1-0.4l0.1-0.4l0.1-0.4l0.1-0.4l0.1-0.4l0.1-0.5l0-0.5l0.1-0.5l0.1-1.2l0.1-1.1
								l0.2-1l0.2-0.9l0.2-0.9l0.2-0.8l0.2-0.7l0.2-0.7l0.3-0.6l0.3-0.5l0.3-0.5l0.3-0.4l0.4-0.3l0.4-0.3l0.4-0.2l0.4-0.2l0.5-0.1
								l0.5-0.1l0.5,0l0.3,0l0.3,0l0.3,0l0.3,0.1l0.3,0.1l0.3,0.1l0.2,0.1l0.2,0.1l0.2,0.2l0.2,0.2l0.2,0.2l0.2,0.2l0.2,0.2l0.2,0.3
								l0.2,0.3l0.2,0.3l0.2,0.3l0.2,0.3l0.2,0.4l0.2,0.4l0.2,0.5l0.1,0.5l0.1,0.6l0.1,0.6l0.1,0.7l0.1,0.8l0.1,0.8l0,0.9l0,1v1
								l0,1.1l0,1.2l0,1.3l-0.1,1.4l-0.1,1.5l-0.1,1.6l-0.1,1.7l-0.1,1.8l-0.1,1.9l-0.1,1.8l-0.1,1.8l0,1.7l0,1.6l0.1,1.6l0.1,1.5
								l0.1,1.5l0.2,1.4l0.2,1.4l0.3,1.3l0.3,1.3l0.3,1.3l0.4,1.2l0.4,1.2l0.5,1.1l0.5,1.1l0.5,1.1l0.6,1l0.9,1.3l0.9,1.3l1,1.3
								l1.1,1.3l1.2,1.2l1.3,1.2l1.3,1.1l1.4,1.1l1.4,1l1.5,1l1.5,0.9l1.5,0.8l1.5,0.8l1.5,0.7l1.5,0.6l1.5,0.5l1.5,0.4l1.5,0.3
								l1.5,0.2l0.8,0.1l0.9,0.1l1,0.1l1.1,0.1l1.2,0.1l1.2,0l1.2,0l1.3,0l1.3,0h1.2l1.2,0l1.2,0l1.1,0l1,0l0.9-0.1l0.8-0.1l0.7-0.1
								l0.6-0.1l0.4-0.1l0.5-0.1l0.6-0.2l0.6-0.2l0.6-0.2l0.6-0.2l0.6-0.2l0.7-0.3l0.6-0.3l0.6-0.3l0.6-0.3l0.6-0.3l0.5-0.2l0.5-0.2
								l0.4-0.2l0.4-0.2l0.3-0.2l0.2-0.2l0.1-0.1l0.1-0.1l0-0.1l-0.1-0.1l-0.1-0.1l-0.2-0.1l-0.2-0.1l-0.3-0.1l-0.3-0.1l-0.4,0
								l-0.4,0l-0.5,0l-0.5,0l-0.6,0l-0.6,0l-0.7,0l-0.7,0.1l-0.8,0.1l-0.8,0.1l-0.9,0.1l-0.9,0.1l-1.2,0.2l-1.1,0.1l-1,0.1
								l-0.9,0.1l-0.7,0.1l-0.6,0l-0.5,0l-0.4,0l-0.3,0l-0.2-0.1l-0.1-0.1l-0.1-0.1l0-0.2l0.1-0.2l0.2-0.2l0.3-0.3l0.3-0.3l0.4-0.4
								l0.5-0.4l0.8-0.6l0.8-0.6l0.7-0.6l0.6-0.6l0.6-0.6l0.5-0.7l0.5-0.7l0.4-0.7l0.4-0.7l0.3-0.7l0.3-0.7l0.2-0.8l0.2-0.8l0.1-0.8
								l0.1-0.9l0.1-0.9l0-0.9l0-1l-0.1-1l0-0.4l0-0.4l0-0.4l0-0.4l0-0.4l0-0.4l0-0.4l0-0.4l0-0.4l0-0.4l0-0.3l0-0.3l0-0.3l0-0.3
								l0-0.3l0-0.2l0-0.2l0-0.2l0-0.2l-0.3-1.8l3.2-1.6l0.8-0.4l0.7-0.4l0.7-0.4l0.7-0.4l0.7-0.4l0.7-0.4l0.7-0.4l0.7-0.4l0.7-0.5
								l0.7-0.5l0.7-0.5l0.7-0.5l0.7-0.6l0.7-0.6l0.7-0.6l0.7-0.6l0.8-0.7l0.8-0.7l0.8-0.7l0.5-0.4l0.5-0.4l0.5-0.4l0.5-0.4l0.5-0.4
								l0.5-0.4l0.4-0.4l0.4-0.4l0.4-0.3l0.4-0.3l0.4-0.3l0.4-0.3l0.4-0.3l0.4-0.3l0.4-0.2l0.4-0.2l0.4-0.2l0.4-0.2l0.4-0.2l1-0.5
								l0.9-0.5l0.8-0.5l0.7-0.4l0.7-0.4l0.6-0.4l0.5-0.4l0.4-0.4l0.4-0.4l0.3-0.3l0.2-0.3l0.2-0.3l0.1-0.3l0-0.3l-0.1-0.3l-0.1-0.3
								l-0.2-0.3l-0.2-0.3l-0.3-0.3l-0.2-0.1l-0.1-0.1l-0.1-0.1l-0.1-0.1l-0.1-0.1l-0.1-0.1l-0.1,0l-0.1,0l-0.1,0h-0.1l-0.1,0
								l-0.1,0l-0.1,0l-0.2,0.1l-0.2,0.1l-0.2,0.1l-0.2,0.1l-0.2,0.1l-0.3,0.1l-0.5,0.2l-0.5,0.2l-0.5,0.2l-0.6,0.2l-0.6,0.2
								l-0.6,0.2l-0.6,0.2l-0.6,0.2l-0.6,0.2l-0.6,0.2l-0.6,0.2l-0.5,0.2l-0.5,0.1l-0.5,0.1l-0.5,0.1l-0.4,0.1l-0.4,0.1l-0.3,0
								l-0.3,0l-0.3,0l-0.3,0l-0.2,0l-0.2-0.1l-0.2-0.1l-0.2-0.1l-0.2-0.1l-0.2-0.1L94.4,67l-0.2-0.2l-0.2-0.2l-0.2-0.2l-0.1-0.2
								L93.6,66l-0.1-0.3l-0.1-0.3l-0.1-0.3l-0.1-0.3l-0.1-0.3l-0.1-0.3l0-0.3l0-0.3l0-0.3l0-0.2l0.1-0.2l0.1-0.2l0.1-0.2l0.2-0.2
								l0.2-0.1L94,62l0.3-0.1l0.3-0.1l0.4-0.1l0.4-0.1l0.5-0.1l0.5-0.1l0.6-0.1l0.7-0.1l0.7-0.1l0.7-0.1l0.7-0.1l0.6-0.1l0.6-0.1
								l0.6-0.1l0.5-0.1l0.5-0.2l0.5-0.2l0.5-0.2l0.4-0.2l0.4-0.2l0.4-0.2l0.4-0.3l0.4-0.3l0.4-0.3l0.4-0.3l0.4-0.4l0.4-0.4L108,57
								l0.5-0.5l0.5-0.5l0.4-0.5l0.4-0.5l0.3-0.4l0.3-0.4l0.2-0.4l0.2-0.4l0.1-0.4l0.1-0.4l0-0.4l0-0.4l-0.1-0.4l-0.1-0.4l-0.2-0.4
								l-0.2-0.4l-0.2-0.4l-0.3-0.4l-0.1-0.1l-0.1-0.2l-0.1-0.2l-0.1-0.2l-0.1-0.2l-0.1-0.2l-0.1-0.3l-0.1-0.3l-0.1-0.3l-0.1-0.3
								l-0.1-0.3l-0.1-0.3l-0.1-0.3l-0.1-0.3l-0.1-0.3l-0.1-0.3l-0.1-0.3l-0.1-0.3l-0.1-0.3l-0.1-0.3l-0.1-0.3l-0.1-0.3l-0.1-0.3
								l-0.1-0.3l-0.1-0.3l-0.1-0.3l-0.1-0.3l-0.1-0.3l-0.1-0.3l-0.1-0.3l-0.1-0.3l-0.1-0.3l-0.1-0.3l-0.1-0.2l-0.1-0.2l-0.1-0.2
								l-0.1-0.2l-0.1-0.2l-0.3-0.4l-0.3-0.4l-0.3-0.4l-0.4-0.4l-0.4-0.4l-0.4-0.4l-0.4-0.5l-0.5-0.5l-0.5-0.5l-0.5-0.4l-0.5-0.4
								l-0.5-0.4l-0.5-0.4l-0.5-0.4l-0.5-0.4L97.7,32l-0.5-0.3l-0.5-0.3l-0.5-0.3L96,31l-0.2-0.1l-0.2-0.1l-0.2-0.1l-0.2-0.1
								l-0.2-0.1l-0.2-0.1L94.5,30l-0.2-0.1l-0.2-0.1L94,29.6l-0.1-0.1l-0.1-0.1l-0.1-0.1l-0.1-0.1l-0.1-0.1L93.3,29l-0.1-0.1
								l-0.1-0.1l-0.2-0.3l-0.2-0.3l-0.2-0.3l-0.2-0.3l-0.2-0.3l-0.3-0.2l-0.3-0.2l-0.3-0.2l-0.3-0.2l-0.3-0.2l-0.3-0.2L90.3,26
								L90,25.8l-0.3-0.1l-0.2-0.1l-0.2-0.1l-0.2-0.1l-0.2,0l-0.2,0l-0.2,0l-0.2,0l-0.2,0L88,25.4l-0.1,0.1l-0.1,0.1l-0.1,0.1
								l-0.1,0.1l-0.1,0.1l-0.1,0.1l-0.1,0.2l-0.1,0.2l-0.1,0.2l0,0.2l0,0.2l0,0.3l0,0.3l0,0.3l0,0.3l0,0.2l0,0.2l0,0.2l0,0.1l0,0.1
								l0,0.1l0,0.1l-0.1,0.1l-0.1,0.1l-0.1,0.1l-0.1,0.1l-0.1,0.1l-0.1,0.1l-0.1,0.1L85.9,30L85.8,30l-0.2,0.1l-0.2,0.1l-0.2,0.1
								l-0.2,0.1l-0.2,0.1l-0.2,0l-0.2,0l-0.2,0l-0.2,0l-0.1,0l-0.1,0l-0.1,0l-0.1,0l-0.1,0l-0.1,0l-0.1-0.1L83,30.3l-0.1-0.1
								l-0.1-0.1l-0.1-0.1L82.6,30l-0.1-0.1l-0.2-0.2l-0.2-0.2l-0.2-0.2l-0.2-0.2l-0.2-0.2l-0.3-0.2l-0.3-0.1l-0.3-0.1l-0.3-0.1
								L80,28.4l-0.3-0.1l-0.3-0.1L79,28.1L78.7,28L78.4,28L78,27.9l-0.3,0l-0.3,0l-0.3,0H77l-0.1,0l-0.1,0l-0.1,0l-0.1,0l-0.1,0
								l-0.1,0L76.3,28l-0.1,0.1l-0.1,0.1l-0.1,0.1l0,0.1l0,0.1l0,0.1l0,0.1l0,0.1l0,0.2l0,0.2v0.2l0,0.1l0,0.1l0,0.2l0,0.2l0,0.2
								l0,0.2l0,0.2l0,0.2l0,0.2l0,0.2l0.1,0.2l0.1,0.2l0.1,0.2l0.1,0.2l0.1,0.2l0.1,0.2l0.1,0.2l0.1,0.2l0.1,0.2l0.1,0.3l0.1,0.3
								l0.1,0.2l0.1,0.2l0.1,0.2l0.1,0.2l0,0.2l0,0.2l0,0.2l0,0.2l0,0.2l0,0.2l0,0.2l0,0.2l0,0.2l0,0.2l-0.1,0.2L77,37l-0.1,0.3
								l-0.2,0.7l-0.2,0.7l-0.2,0.6l-0.2,0.6l-0.2,0.6L75.7,41l-0.3,0.6l-0.3,0.5l-0.3,0.5l-0.3,0.5l-0.3,0.5l-0.3,0.5l-0.4,0.5
								l-0.4,0.5l-0.4,0.5l-0.4,0.5l-0.4,0.5L71.5,47L71,47.5L70.4,48l-0.6,0.5l-0.5,0.5l-0.5,0.4l-0.5,0.4l-0.5,0.4l-0.5,0.4
								l-0.5,0.3l-0.6,0.3l-0.6,0.3l-0.6,0.3l-0.6,0.3l-0.6,0.3l-0.7,0.3l-0.7,0.3l-0.8,0.3l-0.8,0.3l-0.8,0.3L58.9,54l-1,0.3
								L57,54.6l-0.9,0.3l-0.8,0.3l-0.8,0.3L53.8,56l-0.7,0.4l-0.7,0.4l-0.6,0.4l-0.6,0.5l-0.6,0.5L50,58.8l-0.6,0.6l-0.6,0.7
								l-0.7,0.8l-0.7,0.8l-0.7,0.9l-0.8,1l-0.8,1.1L44.9,65l-0.2,0.3l-0.2,0.2l-0.2,0.2L44,65.7l-0.1,0l-0.1-0.1l-0.1-0.1l-0.1-0.2
								l0-0.2l0-0.3l0-0.4l0.1-0.4l0.1-0.5l0.1-0.6l0.1-0.7l0.2-0.7l0.2-0.8l0.2-0.8l0.7-3l0.6-2.9l0.5-2.8l0.4-2.8l0.3-2.7l0.2-2.6
								l0-2.5l-0.1-2.4L47,35.8l-0.3-2.2l-0.4-2.2l-0.5-2.1l-0.6-2l-0.8-1.9l-0.9-1.8l-1-1.7l-1.1-1.6l-1.2-1.5l-1.3-1.4L38.6,17
								l-0.3-0.3l-0.3-0.3l-0.3-0.3l-0.3-0.3l-0.3-0.3l-0.3-0.2L36.3,15L36,14.8l-0.3-0.2l-0.3-0.2L35,14.2L34.6,14l-0.4-0.2
								l-0.4-0.2l-0.4-0.2L33,13.3l-0.5-0.2L32,12.9l-0.4-0.1l-0.3-0.1L31,12.5l-0.3-0.1l-0.3-0.1L30,12.1L29.7,12l-0.3-0.1
								l-0.3-0.1l-0.3-0.1l-0.2-0.1l-0.2-0.1l-0.2-0.1L28,11.5l-0.2,0l-0.1,0l-0.1,0l-0.1,0l-0.1,0l-0.2,0L27,11.4z M57.8,1.1l-1,0
								l-0.9,0l-0.9,0l-0.8,0l-0.7,0l-0.7,0l-0.6,0l-0.6,0.1L51,1.5l-0.6,0.1l-0.5,0.1l-0.5,0.1l-0.5,0.1L48.2,2l-0.6,0.2L47,2.3
								l-0.7,0.2l-1,0.3l-1,0.3l-1,0.3l-1,0.3l-1,0.3l-1,0.3l-0.9,0.3l-0.9,0.3l-0.9,0.3l-0.9,0.4L36,6l-0.8,0.4l-0.8,0.4l-0.8,0.4
								l-0.7,0.4l-0.7,0.4l-0.7,0.4l-0.6,0.4l-0.6,0.3l-2.5,1.6L32,12l0.5,0.2l0.5,0.2l0.5,0.2l0.4,0.2l0.4,0.2l0.4,0.2l0.4,0.2
								l0.3,0.2l0.3,0.2l0.3,0.2l0.3,0.2l0.3,0.2l0.3,0.3l0.3,0.3l0.3,0.3l0.4,0.3l0.4,0.4l0.4,0.4l0.4,0.4l1.3,1.4l1.2,1.5l1.1,1.6
								l1,1.7l0.9,1.8l0.8,1.8l0.7,1.9l0.6,2l0.5,2.1l0.4,2.2l0.2,2.2l0.1,2.3l0,2.4l-0.1,2.4L48,46.6l-0.3,2.6l-0.4,2.6l-0.5,2.7
								l-0.6,2.8L46,57.7l-0.1,0.4l-0.1,0.4L45.7,59l-0.1,0.4l-0.1,0.4l-0.1,0.4l-0.1,0.4l-0.1,0.3l-0.1,0.3l-0.1,0.3l0,0.3l0,0.2
								l0,0.2l0,0.2l0,0.2l0,0.1l0,0.1l0,0l0,0l0,0l0,0l0.1,0l0.1-0.1l0.1-0.1l0.1-0.1l0.1-0.1l0.1-0.1l0.1-0.1l0.1-0.1l0.1-0.1
								l0.1-0.2l0.1-0.2l0.1-0.2l0.1-0.2l0.1-0.2l0.1-0.2l0.1-0.2l0.4-0.5l0.4-0.5l0.4-0.5l0.5-0.5l0.5-0.5l0.5-0.5l0.6-0.4l0.6-0.4
								l0.6-0.4l0.6-0.4l0.7-0.4l0.7-0.4l0.7-0.4l0.7-0.3l0.7-0.3l0.8-0.3l0.8-0.3l0.8-0.3l0.8-0.3l0.9-0.3l0.8-0.3l0.8-0.3l0.7-0.3
								l0.7-0.3l0.7-0.3l0.6-0.3l0.6-0.3l0.6-0.3l0.5-0.3l0.5-0.3l0.5-0.3l0.5-0.4l0.5-0.4l0.5-0.4l0.5-0.4l0.5-0.5l0.6-0.5l0.6-0.6
								l0.6-0.6l0.6-0.6l0.6-0.6l0.5-0.6l0.5-0.6l0.4-0.6l0.4-0.6l0.3-0.6l0.3-0.6l0.3-0.6l0.2-0.6l0.2-0.6l0.1-0.6l0.1-0.6l0.1-0.6
								l0-0.7v-0.7l0-0.7l-0.1-0.7l0-0.2l0-0.3l0-0.3l0-0.3l0-0.3l0-0.3l0-0.3l0-0.3l0-0.3l0-0.3l0-0.3l0-0.3l0-0.3l0-0.3l0-0.3
								l0-0.2l0-0.2l0-0.2l0-0.2l0-0.3l0-0.3l0-0.3v-0.2l0-0.2l0-0.2l0-0.2l0-0.1l0-0.1l0-0.1l0.1-0.1l0.1-0.1l0.1-0.1l0.1,0l0.1,0
								l0.1,0l0.2,0l0.2,0l0.2,0l0.3,0l0.3,0l0.3,0l0.4,0l0.4,0l0.4,0.1l0.4,0.1l0.4,0.1l0.4,0.1l0.4,0.1l0.4,0.1l0.3,0.1l0.3,0.1
								l0.3,0.1l0.3,0.2l0.3,0.2l0.3,0.2l0.2,0.2l0.2,0.2l0.2,0.2l0.2,0.2l0.2,0.1l0.2,0.1l0.2,0.1l0.2,0l0.2,0l0.2,0l0.2,0l0.2-0.1
								l0.2-0.1l0.2-0.1l0.2-0.1l0.1-0.2l0.1-0.2l0.1-0.2l0.1-0.2l0-0.2l0-0.3l0-0.1l0-0.1l0-0.1l0-0.1l0-0.1l0-0.1l0-0.1l0-0.1
								l0-0.1l0.1-0.1l0.1-0.1l0.1-0.1l0.1-0.1l0.1-0.1l0.1-0.1l0.1-0.1l0.1-0.1l0.1-0.1l0.1-0.1l0.2-0.2l0.2-0.2l0.2-0.2l0.3-0.1
								l0.3-0.1l0.3-0.1l0.3,0l0.3,0l0.3,0.1l0.3,0.1l0.3,0.1l0.3,0.2l0.3,0.2l0.4,0.2l0.4,0.3l0.4,0.3l0.4,0.3l0.4,0.4l0.4,0.4
								l0.2,0.2l0.2,0.2l0.2,0.2l0.2,0.2l0.2,0.2l0.2,0.2l0.2,0.2l0.2,0.2l0.2,0.2l0.2,0.2l0.2,0.2l0.2,0.2l0.2,0.2l0.2,0.2l0.2,0.2
								l0.2,0.2l0.2,0.2l0.2,0.1l0.2,0.1l0.8,0.5l0.8,0.5l0.8,0.5l0.7,0.5l0.7,0.6l0.7,0.6l0.6,0.6l0.6,0.6l0.6,0.6l0.6,0.7l0.5,0.7
								l0.5,0.7l0.5,0.7l0.5,0.8l0.4,0.8l0.4,0.8l0.4,0.9l0.4,0.9l0.4,1l0.1,0.3l0.1,0.3l0.1,0.3l0.2,0.3l0.2,0.3l0.2,0.3l0.2,0.3
								l0.2,0.3l0.2,0.3l0.2,0.3l0.2,0.3l0.2,0.3l0.1,0.3l0.1,0.3l0.1,0.3l0.1,0.2l0.1,0.2l0.1,0.2l0.1,0.2l0.2,0.4l0.2,0.3l0.2,0.3
								l0.2,0.3l0.1,0.3l0.1,0.3l0.1,0.3l0,0.3l0,0.3l0,0.3l0,0.3l-0.1,0.3l-0.1,0.3l-0.1,0.3l-0.2,0.3l-0.2,0.4l-0.2,0.4l-0.2,0.4
								l-0.3,0.4l-0.4,0.6l-0.5,0.6l-0.5,0.6l-0.6,0.6l-0.6,0.5l-0.6,0.5l-0.7,0.5l-0.7,0.4l-0.7,0.4l-0.7,0.4l-0.8,0.3l-0.8,0.3
								l-0.8,0.3l-0.8,0.2l-0.8,0.2l-0.8,0.2l-0.8,0.1L98,62.3l-0.8,0l-0.5,0l-0.4,0l-0.4,0l-0.3,0l-0.3,0.1l-0.3,0.1l-0.2,0.1
								l-0.2,0.1l-0.2,0.1L94.2,63l-0.1,0.2L94,63.4l0,0.2l0,0.2l0,0.2l0,0.3l0.1,0.3l0.1,0.3l0.1,0.3l0.1,0.3l0.2,0.3l0.2,0.2
								l0.2,0.2l0.2,0.2l0.3,0.1l0.3,0.1l0.4,0.1l0.4,0l0.4,0l0.5,0l0.5-0.1l0.6-0.1l0.6-0.1l0.6-0.2l0.7-0.2l0.7-0.2l0.8-0.3
								l0.8-0.3l0.7-0.3l0.7-0.3l0.6-0.2l0.6-0.2l0.5-0.2l0.5-0.2l0.4-0.1l0.4-0.1l0.4-0.1l0.3-0.1l0.3,0h0.3l0.3,0l0.2,0l0.2,0.1
								l0.2,0.1l0.2,0.1l0.2,0.2l0.2,0.2l0.3,0.4l0.2,0.4l0.1,0.4l0.1,0.4l0,0.4l-0.1,0.4l-0.1,0.4l-0.2,0.4l-0.3,0.4l-0.3,0.4
								l-0.4,0.4l-0.5,0.5l-0.5,0.5l-0.6,0.5l-0.7,0.5l-0.7,0.5l-0.8,0.5l-0.8,0.4l-0.9,0.4l-0.3,0.2l-0.3,0.2l-0.3,0.2l-0.3,0.2
								l-0.4,0.2l-0.4,0.2l-0.4,0.2l-0.4,0.3l-0.4,0.3l-0.4,0.3l-0.4,0.3l-0.4,0.3l-0.4,0.3l-0.4,0.3L98,76.2l-0.4,0.3l-0.4,0.4
								l-0.4,0.4l-0.4,0.4l-0.8,0.8l-0.8,0.7l-0.8,0.7l-0.7,0.6l-0.7,0.6l-0.7,0.6l-0.7,0.5l-0.7,0.5l-0.6,0.5l-0.6,0.5l-0.6,0.4
								L88,84.5l-0.6,0.4l-0.6,0.4L86,85.8l-0.7,0.4l-0.7,0.4L84,86.9l-0.7,0.4l-3.9,2.1l0.4,2.8l0,0.3l0,0.3l0,0.3l0,0.3l0,0.3
								l0,0.4l0,0.4l0,0.4l0,0.4l0,0.4l0,0.4l0,0.4l0,0.4l0,0.4l0,0.4l0,0.4l0,0.4l0,0.4v0.4l0,0.8l0,0.8l-0.1,0.8l-0.1,0.7
								l-0.1,0.7l-0.2,0.7l-0.2,0.7l-0.2,0.6l-0.2,0.6l-0.3,0.6l-0.3,0.6l-0.3,0.6l-0.4,0.6l-0.4,0.5l-0.4,0.5l-0.5,0.5l-0.5,0.5
								l-0.5,0.5l-0.6,0.5l-2.6,2l2-0.3l0.2,0l0.2,0l0.2,0l0.3,0l0.3,0l0.3,0l0.3-0.1l0.3,0l0.4-0.1l0.4-0.1l0.4-0.1l0.4-0.1
								l0.4-0.1l0.4-0.1L79,112l0.4-0.1l0.4-0.1l0.4-0.1l0.4-0.1l0.6-0.1l0.5-0.1l0.5-0.1l0.5-0.1l0.4,0l0.4,0l0.4,0l0.3,0l0.3,0
								l0.3,0l0.3,0l0.2,0l0.2,0l0.2,0.1l0.2,0.1l0.2,0.1l0.2,0.1l0.2,0.1l0.2,0.1l1.8,0.9l3.6-2.2l2.2-1.4l2.1-1.6l2.1-1.7l2-1.8
								l1.9-1.9l1.8-2l1.8-2.1l1.7-2.1l1.6-2.2l1.5-2.3l1.4-2.4l1.3-2.4l1.2-2.5l1.1-2.5l0.9-2.5l0.8-2.6l0.7-2.6l0.6-2.6l0.4-2.6
								l0.1-1.1l0.1-1.2l0.1-1.2l0.1-1.2l0-1.3l0-1.3l0-1.3l0-1.3l0-1.3l-0.1-1.3l-0.1-1.3l-0.1-1.3l-0.1-1.3l-0.1-1.2l-0.2-1.2
								l-0.2-1.2l-0.2-1.1l-0.2-1.1l-0.2-1l-0.5-1.7l-0.5-1.7l-0.5-1.6l-0.6-1.6l-0.6-1.6l-0.7-1.5l-0.7-1.5l-0.7-1.5l-0.8-1.5
								l-0.8-1.4l-0.9-1.4l-0.9-1.4l-1-1.4l-1-1.3l-1-1.3l-1.1-1.3l-1.1-1.3l-1.2-1.3l-1.2-1.3l-1.2-1.2l-1.2-1.2l-1.3-1.1l-1.3-1.1
								l-1.3-1l-1.3-1l-1.4-0.9l-1.4-0.9L90.1,9l-1.4-0.8l-1.5-0.8l-1.5-0.7L84.1,6l-1.6-0.7l-1.6-0.6l-1.7-0.6l-1.7-0.6l-1.8-0.5
								L74,2.4l-0.7-0.2l-0.6-0.2l-0.6-0.1l-0.6-0.1L71,1.7l-0.5-0.1l-0.5-0.1l-0.6-0.1l-0.6-0.1l-0.6-0.1l-0.6,0l-0.7,0l-0.7,0
								l-0.8,0l-0.9,0l-0.9,0l-1,0l-1.1,0h-1.2H59L57.8,1.1z"/>
						</g>
					</g>
				</g>
				<g>
					<g>
						<g>
							<path id="hA22WP4dy_1_" class="st2" d="M57.4,0.1l-1.8,0.1l-1.8,0.1l-1.7,0.2l-1.6,0.2L49,0.9l-1.4,0.3L44.6,2l-3,0.9l-3,1.1
								l-2.9,1.2l-2.8,1.3L30.2,8l-2.6,1.6L25,11.4l-2.4,1.8l-2.3,2l-2.2,2.1l-2.1,2.2l-2,2.3l-1.9,2.4l-1.8,2.5l-0.6,0.9l-0.6,0.9
								l-0.6,1l-0.6,1l-0.6,1.1l-0.6,1.1l-0.6,1.1l-0.6,1.1l-0.5,1.1L4.6,37l-0.5,1.1l-0.4,1l-0.4,1L3,41l-0.3,0.9l-0.1,0.5
								l-0.1,0.5l-0.1,0.6L2.1,44L2,44.6l-0.2,0.7L1.7,46l-0.2,0.7l-0.1,0.7l-0.1,0.7l-0.1,0.7L1,49.6l-0.1,0.7L0.7,51l-0.1,0.7
								l-0.5,4.5L0,60.7l0.2,4.4l0.5,4.4l0.8,4.3L2.5,78l1.4,4.1l1.7,4l2,3.9l2.3,3.7l2.5,3.6l2.8,3.4l3.1,3.2l3.3,3.1l3.6,2.9
								l0.9,0.6l1,0.7l1.2,0.7l1.3,0.7l1.3,0.7l1.4,0.7l1.4,0.7l1.5,0.7l1.5,0.7l1.4,0.6l1.4,0.6l1.3,0.5l1.3,0.5l1.2,0.4l1.1,0.3
								l1.3,0.3l1.2,0.3l1.1,0.2l1.1,0.2l1,0.2l1,0.2l1,0.1l1,0.1l1,0.1l1.1,0.1l1.1,0l1.2,0l1.3,0l1.4,0l1.6,0l1.2,0l1.1,0l1,0l1,0
								l0.9-0.1l0.8-0.1l0.8-0.1l0.8-0.1l0.8-0.1l0.7-0.1l0.7-0.1l0.7-0.1l0.8-0.2l0.8-0.2l0.8-0.2l1.3-0.4l1.4-0.4l1.5-0.5l1.5-0.6
								l1.5-0.6l1.5-0.7l1.5-0.7l1.5-0.7l1.5-0.8l1.5-0.8l1.4-0.8l1.4-0.8l1.3-0.8l1.2-0.8l1.1-0.8l2-1.6l1.9-1.6l1.8-1.7l1.8-1.8
								l1.7-1.8l1.6-1.9l1.5-2l1.4-2l1.4-2.1l1.3-2.2l1.2-2.2l1.1-2.3l1-2.3l0.9-2.4l0.8-2.4l1-3.6l0.8-3.7l0.6-3.7l0.3-3.8l0.1-3.8
								l-0.2-3.8l-0.4-3.8l-0.6-3.7l-0.9-3.7l-1.1-3.6l-1.3-3.6l-1.5-3.5l-1.8-3.4l-2-3.3l-2.2-3.2l-1.8-2.3L105,20l-2-2.1l-2.1-2
								L98.7,14l-2.3-1.8l-2.4-1.7L91.7,9l-2.5-1.5l-2.6-1.4l-2.7-1.2l-2.7-1.1l-2.8-1l-2.8-0.9l-2.9-0.7l-1.4-0.3l-1.5-0.2
								l-1.6-0.2l-1.7-0.2l-1.8-0.1L63,0.1l-1.9,0h-1.9L57.4,0.1z"/>
						</g>
					</g>
				</g>
				<g>
					<g>
						<path id="f1HxFE2AV" class="st3" d="M19.7,103.8c-5.5-5.2-7.8-8.1-11.2-14.1c-4.9-8.6-7-16.1-7.4-26.8
							c-0.3-6.8,0-10.5,1.7-17.5c0.1-0.2,0.3-1.5,0.8-3.8c0.3,1.5,0.4,2.3,0.5,2.5c1.5,9.3,3.3,13.9,7.1,18.5c1.8,2.2,6.1,5.4,6.8,5
							c0.2-0.1,0.5-2.4,0.7-5.1c0.4-5.8,1-8.1,2.4-9.8c1.3-1.7,3.8-1.8,5.4-0.2c1.9,2,2.2,6.1,1.2,17.2c-1.5,19,0.4,27.7,8.1,36
							c8.3,8.9,17.2,12.9,29.9,13.1c4.2,0.1,4.6,0.1,2.8,0.5c-3.6,0.6-14.4,0.4-18.8-0.4C37.8,116.9,28.4,112.1,19.7,103.8z"/>
					</g>
					<g>
						<g>
							<path id="f1HxFE2AV_1_" class="st2" d="M19.7,103.8c-5.5-5.2-7.8-8.1-11.2-14.1c-4.9-8.6-7-16.1-7.4-26.8
								c-0.3-6.8,0-10.5,1.7-17.5c0.1-0.2,0.3-1.5,0.8-3.8c0.3,1.5,0.4,2.3,0.5,2.5c1.5,9.3,3.3,13.9,7.1,18.5
								c1.8,2.2,6.1,5.4,6.8,5c0.2-0.1,0.5-2.4,0.7-5.1c0.4-5.8,1-8.1,2.4-9.8c1.3-1.7,3.8-1.8,5.4-0.2c1.9,2,2.2,6.1,1.2,17.2
								c-1.5,19,0.4,27.7,8.1,36c8.3,8.9,17.2,12.9,29.9,13.1c4.2,0.1,4.6,0.1,2.8,0.5c-3.6,0.6-14.4,0.4-18.8-0.4
								C37.8,116.9,28.4,112.1,19.7,103.8z"/>
						</g>
					</g>
				</g>
				<g>
					<g>
						<g>
							<path id="aAcRbilbf_1_" class="st2" d="M32.7,100.1c-3.9-6.5-5.1-14.7-4.2-26.9c0.9-11.8,0.8-16.9-0.4-19.5
								c-1.1-2.5-2.2-3.4-4.4-3.4c-3.5,0-5.1,2.8-5.9,10.5c-0.3,3-0.8,5.5-1,5.5c-0.3,0-1.9-1.4-3.6-3.1c-5-5-7.6-11.4-8.2-20.1
								c0-0.3-0.1-1.8-0.3-4.5c1.6-3,2.4-4.6,2.6-5c3.4-6.4,6.3-10.5,11-15.2c3.7-3.8,7.9-7,9.1-7c0.3,0,2.4,0.7,4.6,1.5
								c3.2,1.3,4.5,2.1,6.9,4.5c8.7,8.8,10.6,23.2,5.6,42.6c-1.4,5.6-1.2,7.1,0.6,4.7c5.2-7.1,7.2-8.6,13.8-10.6
								c5.9-1.8,8.4-3.1,12-6.5c3.2-2.9,4.9-5.9,6-10.2c0.5-1.7,0.4-2.6-0.2-4.4c-0.4-1.2-0.8-2.8-0.8-3.6c0-1.2,0.2-1.5,1.2-1.5
								c1.8,0,4.4,1,5.3,2c0.7,0.8,1.1,0.8,2.7,0.4c1.5-0.4,1.8-0.8,1.8-1.9c0-2.1,0.5-3,1.8-3c1.1,0,3.5,1.9,4.5,3.5
								c0.2,0.5,1.6,1.5,3,2.2c3,1.8,7,5.4,8.5,7.8c0.6,1,1.8,3.5,2.5,5.5c0.8,2,2,4.4,2.6,5.1c1.9,2.4,1.2,4.8-2.4,8.1
								c-2.8,2.5-5,3.4-9.7,3.8c-4.3,0.4-5,0.9-4.5,3.2c0.4,2,1.6,3.3,3.4,3.3c1.5,0,6.6-1.6,9.5-3c1.8-0.9,1.9-0.9,2.9-0.1
								c2.2,1.8,0.5,3.6-5.9,6.8c-2.2,1.1-5,3.2-8.1,6c-5.2,4.8-8.7,7.3-13.5,9.7c-0.2,0.1-1.3,0.6-3.1,1.6c0.2,1.1,0.3,1.7,0.3,1.9
								c0.2,1,0.4,3.8,0.6,6.1c0.4,6.7-1.1,10.3-6.5,14.5c-3.3,2.6-2.5,2.9,5.4,1.8c6-0.8,8.8-0.8,8.8,0.2c0,0.5-6.1,3.1-9.2,4
								c-2.3,0.6-14.5,0.6-19.4,0C48.9,116.1,37.8,108.6,32.7,100.1z"/>
						</g>
					</g>
				</g>
				<g>
					<g>
						<path id="av4uPMxBL" class="st3" d="M80.2,99.1c0-2.2-0.2-5.2-0.4-6.8c0-0.2-0.2-1.1-0.4-2.8c2.3-1.3,3.6-2,3.9-2.1
							c4.7-2.6,7.6-4.7,13-9.7c2.6-2.4,5.3-4.4,7.2-5.3c5.9-2.8,8.3-5.9,6.4-8.2c-0.9-1.2-2.4-0.9-7.2,1.1c-5.4,2.1-7.8,2.1-8.5,0.1
							c-0.8-2.3-0.2-2.9,2.9-2.9c5.4,0,10.8-2.8,13.4-6.9c1.8-2.8,1.8-3.9,0.2-6.2c-0.6-1-1.9-3.5-2.8-5.7c-2.5-6.2-5.6-9.9-11-13
							c-1.2-0.8-3.1-2.3-4.1-3.5c-2.4-2.7-4.7-3.4-6-1.7c-0.5,0.6-0.9,1.7-0.9,2.3c0,1.8-1.9,2.4-3.2,1.1c-1.2-1.1-4.4-2-6.2-1.8
							c-1.2,0.2-1.4,0.3-1.2,2.4c0,1.2,0.2,3.6,0.4,5.1c0.6,4.5-0.9,8-5.1,12.1c-3.9,3.7-5.7,4.8-11.7,6.5
							c-5.2,1.6-9.5,4.4-11.8,7.6c-0.9,1.2-1.8,2.2-1.9,2.1c-0.1-0.2,0.3-2.6,1-5.4c4.4-17.6,2.1-31.8-6.6-40.5
							c-2.9-2.9-3.9-3.5-7.5-4.8c-0.3-0.1-1.7-0.6-4.2-1.5c1.5-1,2.3-1.5,2.5-1.6c3.3-2.1,10-4.8,16-6.4c4.3-1.2,5.8-1.4,13.8-1.4
							c8.1,0,9.4,0.1,13.8,1.3c11.6,3.2,20.1,8,27.9,15.9c7.9,7.9,12.9,16.7,15.8,27.5c1.6,6,2.1,16.3,1.2,23.2
							c-2.2,16.5-12.8,32.9-26.8,41.7c-0.2,0.1-1.4,0.9-3.6,2.2c-1.1-0.5-1.6-0.8-1.8-0.9c-1.9-0.9-2.7-0.8-12.6,0.7
							c-0.1,0-0.8,0.1-2,0.3l2.6-2C78.4,106.5,80.2,102.6,80.2,99.1z"/>
					</g>
					<g>
						<g>
							<path id="av4uPMxBL_1_" class="st2" d="M80.2,99.1c0-2.2-0.2-5.2-0.4-6.8c0-0.2-0.2-1.1-0.4-2.8c2.3-1.3,3.6-2,3.9-2.1
								c4.7-2.6,7.6-4.7,13-9.7c2.6-2.4,5.3-4.4,7.2-5.3c5.9-2.8,8.3-5.9,6.4-8.2c-0.9-1.2-2.4-0.9-7.2,1.1
								c-5.4,2.1-7.8,2.1-8.5,0.1c-0.8-2.3-0.2-2.9,2.9-2.9c5.4,0,10.8-2.8,13.4-6.9c1.8-2.8,1.8-3.9,0.2-6.2
								c-0.6-1-1.9-3.5-2.8-5.7c-2.5-6.2-5.6-9.9-11-13c-1.2-0.8-3.1-2.3-4.1-3.5c-2.4-2.7-4.7-3.4-6-1.7c-0.5,0.6-0.9,1.7-0.9,2.3
								c0,1.8-1.9,2.4-3.2,1.1c-1.2-1.1-4.4-2-6.2-1.8c-1.2,0.2-1.4,0.3-1.2,2.4c0,1.2,0.2,3.6,0.4,5.1c0.6,4.5-0.9,8-5.1,12.1
								c-3.9,3.7-5.7,4.8-11.7,6.5c-5.2,1.6-9.5,4.4-11.8,7.6c-0.9,1.2-1.8,2.2-1.9,2.1c-0.1-0.2,0.3-2.6,1-5.4
								c4.4-17.6,2.1-31.8-6.6-40.5c-2.9-2.9-3.9-3.5-7.5-4.8c-0.3-0.1-1.7-0.6-4.2-1.5c1.5-1,2.3-1.5,2.5-1.6
								c3.3-2.1,10-4.8,16-6.4c4.3-1.2,5.8-1.4,13.8-1.4c8.1,0,9.4,0.1,13.8,1.3c11.6,3.2,20.1,8,27.9,15.9
								c7.9,7.9,12.9,16.7,15.8,27.5c1.6,6,2.1,16.3,1.2,23.2c-2.2,16.5-12.8,32.9-26.8,41.7c-0.2,0.1-1.4,0.9-3.6,2.2
								c-1.1-0.5-1.6-0.8-1.8-0.9c-1.9-0.9-2.7-0.8-12.6,0.7c-0.1,0-0.8,0.1-2,0.3l2.6-2C78.4,106.5,80.2,102.6,80.2,99.1z"/>
						</g>
					</g>
				</g>
			</g>
		</g>
	</g>
</g>
</svg>
