<?xml version="1.0" encoding="utf-8"?>
<!-- Generator: Adobe Illustrator 21.0.2, SVG Export Plug-In . SVG Version: 6.00 Build 0)  -->
<svg version="1.1" id="Layer_1" xmlns="http://www.w3.org/2000/svg" xmlns:xlink="http://www.w3.org/1999/xlink" x="0px" y="0px"
	 viewBox="0 0 236.8 237.2" style="enable-background:new 0 0 236.8 237.2;" xml:space="preserve">
<style type="text/css">
	.st0{fill:#5197A8;}
	.st1{fill:#FEFEFE;}
</style>
<g>
	<g>
		<g>
			<g>
				<path id="f1HxFE2AV" class="st0" d="M37.4,205.3C26.4,194.8,21.9,189,15,177c-9.7-17.1-13.9-32.2-14.8-53.6
					c-0.6-13.7,0.1-21,3.4-35c0.1-0.5,0.7-3,1.7-7.5c0.5,3,0.8,4.7,0.9,5c3.1,18.6,6.7,27.9,14.2,37c3.6,4.4,12.2,10.8,13.5,10
					c0.4-0.2,1-4.8,1.4-10.2c0.8-11.6,1.9-16.1,4.7-19.7c2.7-3.4,7.7-3.6,10.8-0.3c3.8,4.1,4.4,12.2,2.5,34.5
					c-3.1,38,0.8,55.5,16.2,72.1c16.6,17.9,34.5,25.8,59.9,26.2c8.4,0.1,9.3,0.3,5.5,1c-7.2,1.2-28.8,0.8-37.5-0.7
					C73.7,231.5,54.8,221.9,37.4,205.3z"/>
			</g>
		</g>
		<g>
			<g>
				<path id="aAcRbilbf" class="st1" d="M63.4,197.9c-7.7-12.9-10.3-29.4-8.5-53.8c1.7-23.6,1.5-33.7-0.8-39
					c-2.2-4.9-4.5-6.7-8.7-6.7c-7,0-10.1,5.6-11.7,21c-0.6,6.1-1.5,11-2,11c-0.6,0-3.8-2.8-7.2-6.2c-10-10.1-15.1-22.8-16.3-40.3
					c0-0.6-0.2-3.6-0.6-9c3.1-5.9,4.9-9.2,5.2-9.9c6.7-12.9,12.6-21,22-30.5c7.4-7.5,15.9-14.1,18.1-14.1c0.6,0,4.7,1.4,9.2,3.1
					c6.5,2.6,9.1,4.2,13.8,9c17.4,17.6,21.2,46.4,11.3,85.1c-2.9,11.2-2.5,14.3,1.1,9.4c10.4-14.2,14.4-17.2,27.6-21.3
					c11.7-3.5,16.8-6.3,24.1-13c6.3-5.9,9.7-11.7,11.9-20.5c0.9-3.4,0.8-5.2-0.5-8.7c-0.8-2.4-1.5-5.6-1.5-7.2
					c0-2.4,0.4-2.9,2.4-2.9c3.6,0,8.9,2,10.7,4.1c1.4,1.5,2.1,1.6,5.3,0.7c3-0.9,3.6-1.6,3.6-3.9c0-4.2,1-5.9,3.5-5.9
					c2.2,0,7.1,3.8,9.1,7c0.5,0.9,3.1,2.9,5.9,4.5c6,3.5,14,10.7,17,15.5c1.2,1.9,3.5,6.9,5,11c1.6,4.1,3.9,8.8,5.2,10.3
					c3.9,4.8,2.5,9.6-4.7,16.1c-5.6,5-9.9,6.8-19.4,7.6c-8.6,0.8-10,1.8-9.1,6.4c0.7,4.1,3.3,6.6,6.7,6.6c3.1,0,13.3-3.3,19-6.1
					c3.5-1.8,3.7-1.8,5.8-0.1c4.4,3.5,1.1,7.3-11.7,13.6c-4.4,2.2-10.1,6.5-16.2,12.1c-10.4,9.6-17.4,14.6-27,19.4
					c-0.4,0.2-2.5,1.3-6.3,3.2c0.4,2.2,0.6,3.5,0.6,3.7c0.4,2,0.9,7.6,1.3,12.3c0.9,13.4-2.3,20.6-12.9,28.9
					c-6.6,5.3-5.1,5.7,10.7,3.5c11.9-1.6,17.5-1.5,17.5,0.4c0,1-12.3,6.3-18.5,8c-4.6,1.3-28.9,1.3-38.7,0
					C95.9,229.9,73.6,214.9,63.4,197.9z"/>
			</g>
		</g>
		<g>
			<g>
				<path id="av4uPMxBL" class="st0" d="M158.4,195.9c0-4.4-0.4-10.5-0.8-13.6c-0.1-0.4-0.3-2.3-0.8-5.7c4.7-2.5,7.3-3.9,7.8-4.2
					c9.4-5.1,15.2-9.3,26.1-19.4c5.1-4.7,10.6-8.8,14.5-10.6c11.8-5.6,16.6-11.8,12.7-16.5c-1.9-2.3-4.7-1.9-14.4,2.1
					c-10.7,4.2-15.6,4.3-17,0.3c-1.6-4.6-0.3-5.9,5.8-5.9c10.7,0,21.5-5.6,26.7-13.8c3.5-5.6,3.6-7.9,0.4-12.5
					c-1.3-2-3.8-7.1-5.5-11.3c-5-12.5-11.1-19.8-22-26.1c-2.5-1.5-6.2-4.6-8.3-6.9c-4.7-5.4-9.3-6.7-11.9-3.4
					c-1,1.2-1.8,3.3-1.8,4.6c0,3.5-3.7,4.7-6.4,2.2c-2.4-2.2-8.7-4-12.4-3.6c-2.5,0.3-2.7,0.6-2.5,4.8c0.1,2.5,0.5,7.1,0.8,10.2
					c1.1,8.9-1.9,15.9-10.3,24.1c-7.7,7.4-11.4,9.5-23.4,13.1c-10.4,3.2-19.1,8.7-23.7,15.1c-1.8,2.5-3.5,4.4-3.8,4.2
					c-0.2-0.3,0.7-5.2,2.1-10.9C99.1,77,94.4,48.7,77,31.3c-5.7-5.7-7.7-7-14.9-9.6c-0.6-0.2-3.4-1.2-8.4-3c3-1.9,4.7-3,5-3.2
					c6.7-4.3,20-9.6,32-12.8C99.4,0.3,102.2,0,118.4,0c16.3,0,18.9,0.2,27.6,2.6c23.1,6.3,40.3,16,55.9,31.7
					c15.8,15.8,25.9,33.4,31.6,55c3.2,12,4.3,32.6,2.4,46.4c-4.4,33-25.6,65.8-53.6,83.3c-0.5,0.3-2.9,1.8-7.2,4.5
					c-2.1-1-3.3-1.6-3.5-1.7c-3.7-1.8-5.4-1.7-25.2,1.3c-0.3,0-1.6,0.2-4,0.6l5.1-4.1C154.8,210.8,158.4,202.9,158.4,195.9z"/>
			</g>
		</g>
	</g>
</g>
</svg>
